<?xml version="1.0" encoding="utf-8"?>
<!-- Generator: Adobe Illustrator 27.5.0, SVG Export Plug-In . SVG Version: 6.00 Build 0)  -->
<svg version="1.1" id="Layer_1" xmlns="http://www.w3.org/2000/svg" xmlns:xlink="http://www.w3.org/1999/xlink" x="0px" y="0px"
	 viewBox="0 0 1080 425.6" style="enable-background:new 0 0 1080 425.6;" xml:space="preserve">
<style type="text/css">
	.st0{fill:#373737;}
	.st1{fill:#FD4539;}
</style>
<path class="st0" d="M450.5,186.7c-17-17-38.4-25.5-64.2-25.5c-25.8,0-47.6,8.5-65.4,25.5c-17.7,17-26.6,39.1-26.6,66.5
	s8.9,49.8,26.6,67.3c18,17.2,39.8,25.8,65.4,25.8c18.2,0,34.8-3.7,49.6-11c14.8-7.4,25.9-18,33.3-31.9l-35.3-19
	c-3.8,7.1-9.8,12.7-17.9,16.7c-8.1,4-17,6.1-26.6,6.1c-13.2,0-24.3-3.5-33.3-10.5c-9-7-14.3-16.2-15.8-27.6h135.3
	c0.5-7.6,0.8-12.9,0.8-16h0C476.4,226.1,467.7,204,450.5,186.7z M339.9,237.7c1.8-11.4,6.9-20.5,15.4-27.4
	c8.5-6.8,19.5-10.3,31.4-10.3c11.9,0,21.9,3.4,29.8,10.1c8,6.7,12.8,15.9,14.6,27.6H339.9z"/>
<path class="st0" d="M761.7,187.7c-17.7-17-39.3-25.5-65.4-25.5s-48,8.5-65.8,25.5c-17.7,17-26.6,38.9-26.6,66.5s8.9,49.9,26.6,66.9
	c18,17.2,40.2,25.8,65.8,25.8s47.4-8.6,65.4-25.8c18-17.2,27-39.8,27-66.9C788.6,227.1,779.6,204.9,761.7,187.7z M729.5,288.4
	c-8.8,8.9-19.8,13.3-33.3,13.3s-24.5-4.4-33.3-13.3s-13.1-20.8-13.1-34.2s4.4-24.5,13.3-33.3c8.9-8.7,19.9-13.1,33.1-13.1
	s24.2,4.4,33.1,13.1c8.9,8.8,13.3,19.8,13.3,33.3h0C742.7,268.1,738.3,279.5,729.5,288.4z"/>
<path class="st0" d="M264.1,224.1c-11.5-13.8-30.4-24.3-56.4-31.4l-32.3-9.5c-10.1-2.7-17.6-6.5-22.8-11.3H98
	c6.3,26.2,27.6,44.7,64,55.4l32.3,8.4c12.7,3.6,22,8.2,27.9,14.1c5.9,5.8,8.7,13.1,8.2,21.7c-0.5,9.4-4.7,17-12.5,22.8
	c-7.9,5.8-18.1,8.8-30.8,8.8s-23.9-3.5-32.1-10.6c-8.2-7.1-12.6-15.8-13.1-26.2H93.2c0,22.6,8.7,41.7,26.2,57.4
	c17.2,15.5,39.8,23.2,67.7,23.2c25.3,0,46.6-6.6,63.9-19.8c17.5-13.2,26.9-31.3,28.1-54.4C280.6,254.1,275.6,237.9,264.1,224.1
	L264.1,224.1z"/>
<path class="st1" d="M144.1,153.3c0-9.1,3.7-16.5,11-22.2c7.3-5.7,16.7-8.6,28.1-8.6c12.2,0,21.7,3.1,28.7,9.3
	c6.9,6.1,10.4,14.3,10.4,24.6h48.6c-0.1-23.9-8.3-42.9-24.7-57.1c-16.5-14.4-37.2-21.7-62.3-21.7s-45.5,7.2-62.7,21.7
	c-17,13.9-25.5,32.3-25.5,55.1c0,0.7,0.1,1.3,0.1,2h48.5C144.3,155.3,144.2,154.3,144.1,153.3L144.1,153.3z"/>
<path class="st1" d="M928.7,288.4c-8.8,8.9-19.8,13.3-33.3,13.3s-24.5-4.4-33.3-13.3c-6-6.1-9.9-13.4-11.8-21.9h-46.6
	c2.3,22,10.9,40.2,25.9,54.5c18,17.2,39.9,25.9,65.8,25.9s47.4-8.6,65.4-25.9c15.2-14.5,23.9-32.8,26.2-54.5h-46.6
	C938.6,275,934.7,282.3,928.7,288.4L928.7,288.4z"/>
<path class="st0" d="M862.4,221c8.9-8.7,19.9-13.1,33.1-13.1s24.2,4.4,33.1,13.1c8.1,8,12.5,18.1,13.2,30h46
	c-0.7-25.6-9.6-46.7-26.8-63.3c-17.7-17-39.5-25.5-65.4-25.5s-48,8.5-65.8,25.5c-17,16.3-25.8,37.4-26.5,63.3h46
	C849.9,239,854.2,229,862.4,221L862.4,221z"/>
<path class="st0" d="M586.9,206.4h-43.1v79.4c0,6.6,1.7,11.5,5,14.5c3.3,3,8.1,4.8,14.5,5.1c6.4,0.4,14.2,0.3,23.7-0.2V345
	c-33.9,3.8-58.7,1.9-71.6-9.5c-13.2-11.7-15.8-23.4-15.8-49.6V120.5l44.3-14.9v53.5h43.1L586.9,206.4L586.9,206.4z"/>
</svg>
