<svg width="129" height="99" viewBox="0 0 129 69" fill="none" xmlns="http://www.w3.org/2000/svg">
<path d="M91.4745 28.0751C87.5721 34.5481 81.4049 39.4958 74.0685 41.8303C74.0376 39.0235 73.453 36.4141 72.4619 34.2345C78.8536 32.5737 84.4556 28.95 88.5903 24.0449C89.6549 25.307 90.6228 26.6543 91.4745 28.0751Z" fill="#CE5527"/>
<path d="M56.538 34.2348C55.5469 36.4144 54.9623 39.0238 54.9313 41.8305C47.595 39.4961 41.4278 34.5445 37.5254 28.0754C38.3771 26.6584 39.345 25.3073 40.4096 24.0491C44.5404 28.9503 50.1463 32.574 56.538 34.2348Z" fill="#CE5527"/>
<path d="M71.0056 13.5074C71.0017 13.5074 70.9978 13.5035 70.9939 13.5035C69.3292 11.8427 67.0335 10.8168 64.5016 10.8168C61.9658 10.8168 59.6739 11.8427 58.0092 13.5035C58.0053 13.5035 58.0014 13.5074 57.9976 13.5074C59.0622 8.45132 61.3347 3.84433 64.5054 0C67.6684 3.84433 69.9448 8.45132 71.0056 13.5074Z" fill="#CE5527"/>
<path d="M71.0102 26.5076C72.6711 24.8429 73.697 22.5471 73.697 20.0152C73.697 17.4833 72.6711 15.1876 71.0102 13.5228C71.0102 13.519 71.0063 13.5151 71.0063 13.5112C76.0624 14.5759 80.6694 16.8484 84.5138 20.0191C80.6694 23.1859 76.0586 25.4623 71.0063 26.527C71.0063 26.5154 71.0102 26.5115 71.0102 26.5076Z" fill="#CE5527"/>
<path d="M57.9899 26.5078C57.9899 26.5117 57.9937 26.5155 57.9937 26.5194C52.9377 25.4548 48.3268 23.1822 44.4863 20.0115C48.3307 16.8408 52.9415 14.5683 57.9937 13.5037C57.9937 13.5075 57.9899 13.5114 57.9899 13.5153C56.329 15.18 55.3031 17.4758 55.3031 20.0077C55.3031 22.5396 56.3329 24.8431 57.9899 26.5078Z" fill="#CE5527"/>
<path d="M57.9932 26.4958C57.997 26.4958 58.0009 26.4997 58.0048 26.4997C59.6695 28.1606 61.9652 29.1865 64.4972 29.1865C67.0329 29.1865 69.3248 28.1606 70.9895 26.4997C70.9934 26.4997 70.9973 26.4958 71.0011 26.4958C69.9365 31.5519 67.664 36.1589 64.4933 40.0033C61.3303 36.1628 59.0578 31.5519 57.9932 26.4958Z" fill="#35150E"/>
<path d="M8.01653 68.0821C7.61003 68.0821 7.27323 67.9892 7.00997 67.7995C6.74672 67.6098 6.52991 67.3272 6.36344 66.9517L0.459513 53.6998C0.293042 53.3242 0.246582 52.9913 0.324011 52.7048C0.397568 52.4183 0.556301 52.1938 0.800201 52.0273C1.04023 51.8608 1.32672 51.7795 1.65966 51.7795C2.09713 51.7795 2.4262 51.8725 2.643 52.0622C2.8598 52.2519 3.04563 52.5345 3.19661 52.91L8.55854 65.3295H7.58681L12.9255 52.8906C13.092 52.5267 13.2856 52.2519 13.514 52.066C13.7385 51.8763 14.056 51.7834 14.4625 51.7834C14.7954 51.7834 15.0703 51.8647 15.2871 52.0312C15.5039 52.1977 15.6433 52.4222 15.7052 52.7087C15.7671 52.9952 15.7129 53.3281 15.5465 53.7036L9.64254 66.9594C9.47607 67.3349 9.27087 67.6176 9.01923 67.8073C8.77146 67.9892 8.43465 68.0821 8.01653 68.0821Z" fill="#35150E"/>
<path d="M18.9376 54.5831C18.4111 54.5831 18.0007 54.4514 17.7065 54.1882C17.4122 53.9249 17.2651 53.5571 17.2651 53.0926C17.2651 52.6086 17.4122 52.2408 17.7065 51.9853C18.0007 51.7298 18.4111 51.6021 18.9376 51.6021C19.4796 51.6021 19.8938 51.7298 20.1803 51.9853C20.4668 52.2408 20.61 52.6125 20.61 53.0926C20.61 53.561 20.4668 53.9249 20.1803 54.1882C19.8977 54.4475 19.4835 54.5831 18.9376 54.5831ZM18.9376 68.0634C18.4846 68.0634 18.1401 67.9279 17.8962 67.6569C17.6562 67.3859 17.5323 67.0103 17.5323 66.5264V58.2261C17.5323 57.7267 17.6523 57.3472 17.8962 57.084C18.1362 56.8207 18.4846 56.6891 18.9376 56.6891C19.3906 56.6891 19.739 56.8207 19.9906 57.084C20.2384 57.3472 20.3623 57.7305 20.3623 58.2261V66.5264C20.3623 67.0103 20.2423 67.3859 20.0022 67.6569C19.7622 67.9279 19.406 68.0634 18.9376 68.0634Z" fill="#35150E"/>
<path d="M27.3541 68.1287C26.7076 68.1287 26.0185 68.059 25.2945 67.9235C24.5706 67.788 23.9241 67.5557 23.3511 67.2228C23.1111 67.0718 22.9407 66.8937 22.8439 66.6924C22.7471 66.4872 22.7084 66.2859 22.7317 66.0807C22.7549 65.8755 22.8284 65.7013 22.9562 65.5503C23.084 65.3993 23.2504 65.3025 23.4556 65.2561C23.6608 65.2096 23.8815 65.2483 24.1215 65.3684C24.7254 65.6548 25.2907 65.8562 25.8172 65.9684C26.3437 66.0807 26.8663 66.1388 27.3774 66.1388C28.1013 66.1388 28.6395 66.0149 28.9956 65.7671C29.3479 65.5193 29.526 65.1903 29.526 64.7838C29.526 64.4353 29.4099 64.1682 29.1737 63.9824C28.9414 63.7927 28.5891 63.6533 28.1207 63.5643L25.8598 63.1345C24.9229 62.9526 24.2105 62.6119 23.7227 62.1047C23.2311 61.6015 22.9872 60.9472 22.9872 60.1497C22.9872 59.4257 23.1885 58.7985 23.5872 58.272C23.986 57.7455 24.5396 57.339 25.2481 57.0525C25.9566 56.766 26.7696 56.6228 27.691 56.6228C28.353 56.6228 28.9763 56.6964 29.557 56.8396C30.1377 56.9828 30.6991 57.2035 31.2411 57.5055C31.4656 57.6255 31.6204 57.7842 31.7056 57.9817C31.7869 58.1791 31.8063 58.3766 31.7637 58.5817C31.7172 58.7869 31.6282 58.965 31.4927 59.1237C31.3572 59.2825 31.1869 59.3793 30.9855 59.418C30.7804 59.4567 30.5519 59.4141 30.2964 59.2941C29.828 59.0541 29.3789 58.8798 28.9492 58.7753C28.5194 58.6708 28.1091 58.6166 27.7181 58.6166C26.9786 58.6166 26.4327 58.7444 26.0766 58.9999C25.7204 59.2554 25.5462 59.5961 25.5462 60.018C25.5462 60.3355 25.6507 60.5988 25.8636 60.8078C26.0727 61.0207 26.3979 61.164 26.8354 61.2375L29.0963 61.6673C30.0758 61.8492 30.8191 62.1783 31.3224 62.6622C31.8256 63.1462 32.0811 63.7927 32.0811 64.6057C32.0811 65.7052 31.6514 66.5685 30.792 67.1957C29.9325 67.8151 28.7866 68.1287 27.3541 68.1287Z" fill="#35150E"/>
<path d="M35.7437 68.0826C35.2908 68.0826 34.9462 67.9587 34.7023 67.7109C34.4623 67.4631 34.3384 67.1031 34.3384 66.6347V53.2008C34.3384 52.7324 34.4584 52.3801 34.7023 52.1362C34.9423 51.8961 35.2908 51.7761 35.7437 51.7761C36.1967 51.7761 36.5451 51.8961 36.7967 52.1362C37.0445 52.3762 37.1684 52.7324 37.1684 53.2008V59.0583H36.8509C37.1839 58.2608 37.6988 57.6529 38.3995 57.2387C39.1002 56.8245 39.8977 56.6154 40.7843 56.6154C41.6747 56.6154 42.4064 56.7819 42.9794 57.1148C43.5524 57.4478 43.9821 57.9472 44.2686 58.6208C44.5551 59.2906 44.6983 60.1384 44.6983 61.1643V66.6385C44.6983 67.107 44.5783 67.4631 44.3383 67.7148C44.0983 67.9626 43.7498 68.0864 43.2969 68.0864C42.8439 68.0864 42.4955 67.9626 42.2438 67.7148C41.9922 67.467 41.8722 67.107 41.8722 66.6385V61.2998C41.8722 60.4404 41.7096 59.8132 41.3844 59.4222C41.0592 59.0312 40.5598 58.8337 39.8784 58.8337C39.0499 58.8337 38.3879 59.0931 37.9001 59.6158C37.4084 60.1345 37.1645 60.8275 37.1645 61.687V66.6385C37.1684 67.6025 36.6961 68.0826 35.7437 68.0826Z" fill="#35150E"/>
<path d="M51.8492 68.0821C51.4737 68.0821 51.1485 67.9892 50.8775 67.7995C50.6065 67.6098 50.3858 67.3117 50.2232 66.9052L46.9441 58.5351C46.8086 58.1712 46.766 57.8538 46.8202 57.575C46.8744 57.2963 47.0138 57.0756 47.2383 56.9091C47.4629 56.7427 47.7648 56.6614 48.1442 56.6614C48.4772 56.6614 48.7482 56.7388 48.9572 56.8975C49.1663 57.0563 49.3482 57.3544 49.4992 57.7918L52.2363 65.3256H51.7176L54.5437 57.6137C54.6637 57.2808 54.8263 57.0408 55.0315 56.8898C55.2367 56.7388 55.5038 56.6652 55.8329 56.6652C56.1658 56.6652 56.4368 56.7427 56.6459 56.9014C56.855 57.0601 57.0137 57.2963 57.1221 57.6137L59.9056 65.3256H59.4295L62.1898 57.726C62.3408 57.3195 62.5343 57.0408 62.7666 56.8898C62.9989 56.7388 63.2622 56.6652 63.5487 56.6652C63.9126 56.6652 64.1913 56.7543 64.3849 56.9362C64.5823 57.1182 64.6946 57.3466 64.7256 57.6254C64.7565 57.9041 64.7023 58.2099 64.5668 58.5429L61.311 66.9129C61.16 67.3039 60.9471 67.5981 60.6644 67.7956C60.3857 67.993 60.0566 68.0898 59.6811 68.0898C59.3056 68.0898 58.9765 67.993 58.6977 67.7956C58.419 67.5981 58.2022 67.3039 58.0512 66.9129L55.0896 59.0655H56.3788L53.4829 66.8897C53.332 67.2962 53.119 67.5981 52.848 67.7956C52.5732 67.9853 52.2402 68.0821 51.8492 68.0821Z" fill="#35150E"/>
<path d="M70.5092 68.1291C69.7116 68.1291 68.9954 67.9742 68.3721 67.6645C67.745 67.3548 67.2572 66.9367 66.901 66.4102C66.5448 65.8836 66.3706 65.2874 66.3706 64.6216C66.3706 63.8086 66.5797 63.162 67.0055 62.6858C67.4275 62.2097 68.1128 61.869 69.0651 61.656C70.0136 61.447 71.2873 61.3386 72.8862 61.3386H74.0167V62.9685H72.9095C71.9726 62.9685 71.2292 63.0149 70.6718 63.104C70.1143 63.193 69.7194 63.3479 69.4832 63.5685C69.2509 63.7892 69.1309 64.0912 69.1309 64.4861C69.1309 64.9855 69.3051 65.392 69.6497 65.7094C69.9981 66.0269 70.4782 66.1856 71.0976 66.1856C71.597 66.1856 72.0345 66.0695 72.4216 65.8333C72.8049 65.601 73.1108 65.2797 73.3392 64.8732C73.5637 64.4667 73.6799 63.9983 73.6799 63.4717V60.8701C73.6799 60.1152 73.5134 59.5732 73.1805 59.2403C72.8475 58.9073 72.29 58.7409 71.508 58.7409C71.0705 58.7409 70.5982 58.7951 70.0949 58.8996C69.5878 59.0041 69.0574 59.1861 68.4999 59.4416C68.2134 59.5771 67.9618 59.6158 67.7411 59.5539C67.5243 59.4919 67.3539 59.368 67.2339 59.1822C67.1139 58.9925 67.052 58.7873 67.052 58.5589C67.052 58.3344 67.11 58.1098 67.2339 57.893C67.3539 57.6762 67.5591 57.5136 67.8456 57.4052C68.5386 57.1187 69.2045 56.9135 69.8471 56.7935C70.4859 56.6735 71.0705 56.6116 71.6009 56.6116C72.6849 56.6116 73.5792 56.778 74.2799 57.111C74.9807 57.4439 75.5033 57.9433 75.8517 58.617C76.2002 59.2867 76.3705 60.1501 76.3705 61.207V66.6347C76.3705 67.1031 76.2582 67.4593 76.0298 67.711C75.8053 67.9587 75.4801 68.0826 75.0581 68.0826C74.6361 68.0826 74.307 67.9587 74.0748 67.711C73.8425 67.4632 73.7224 67.1031 73.7224 66.6347V65.5507H73.9044C73.7999 66.0772 73.5908 66.534 73.2811 66.9173C72.9714 67.3006 72.5843 67.5987 72.1158 67.8116C71.6474 68.0245 71.1131 68.1291 70.5092 68.1291Z" fill="#35150E"/>
<path d="M80.4392 68.0629C80.1372 68.0629 79.9126 67.9816 79.7617 67.8152C79.6107 67.6487 79.5371 67.4164 79.5371 67.1144V57.6836C79.5371 57.3817 79.6107 57.1532 79.7617 56.9945C79.9126 56.8358 80.1294 56.7584 80.4159 56.7584C80.7024 56.7584 80.9231 56.8358 81.0818 56.9945C81.2405 57.1532 81.318 57.3817 81.318 57.6836V59.6736L81.0702 59.3561C81.3567 58.5121 81.8212 57.8579 82.46 57.401C83.0988 56.9403 83.8654 56.7119 84.7558 56.7119C85.6888 56.7119 86.4476 56.9365 87.0283 57.3778C87.609 57.823 87.9962 58.5121 88.1936 59.449H87.8529C88.1239 58.605 88.6117 57.9392 89.3125 57.4475C90.0132 56.9558 90.83 56.7119 91.7669 56.7119C92.5954 56.7119 93.2768 56.8706 93.8149 57.1881C94.3492 57.5055 94.7518 57.9817 95.0267 58.6244C95.2977 59.2671 95.4332 60.0762 95.4332 61.0557V67.1183C95.4332 67.4203 95.3558 67.6526 95.197 67.819C95.0383 67.9855 94.8099 68.0668 94.5079 68.0668C94.2214 68.0668 94.0008 67.9855 93.842 67.819C93.6833 67.6526 93.6059 67.4203 93.6059 67.1183V61.1486C93.6059 60.1381 93.4317 59.3948 93.0871 58.9225C92.7387 58.4463 92.1502 58.2102 91.3217 58.2102C90.4158 58.2102 89.7035 58.5237 89.1847 59.147C88.6659 59.7742 88.4027 60.622 88.4027 61.6906V67.1183C88.4027 67.4203 88.3252 67.6526 88.1665 67.819C88.0078 67.9855 87.7794 68.0668 87.4774 68.0668C87.1909 68.0668 86.9702 67.9855 86.8115 67.819C86.6528 67.6526 86.5754 67.4203 86.5754 67.1183V61.1486C86.5754 60.1381 86.3973 59.3948 86.045 58.9225C85.6888 58.4463 85.1081 58.2102 84.2912 58.2102C83.3853 58.2102 82.673 58.5237 82.1542 59.147C81.6354 59.7742 81.3722 60.622 81.3722 61.6906V67.1183C81.3644 67.7455 81.0586 68.0629 80.4392 68.0629Z" fill="#CE5527"/>
<path d="M99.7538 54.2655C99.3783 54.2655 99.0841 54.1649 98.8712 53.9597C98.6582 53.7545 98.5537 53.4796 98.5537 53.1351C98.5537 52.7711 98.6582 52.4963 98.8712 52.3104C99.0802 52.1207 99.3744 52.0278 99.7538 52.0278C100.145 52.0278 100.443 52.1207 100.648 52.3104C100.853 52.5001 100.954 52.775 100.954 53.1351C100.954 53.4835 100.853 53.7584 100.648 53.9597C100.443 54.161 100.149 54.2655 99.7538 54.2655ZM99.7538 68.0168C99.4519 68.0168 99.2273 67.9317 99.0763 67.7574C98.9254 67.5832 98.8518 67.3393 98.8518 67.0219V57.7692C98.8518 57.4517 98.9254 57.2117 99.0763 57.0452C99.2273 56.8787 99.4519 56.7974 99.7538 56.7974C100.04 56.7974 100.265 56.8787 100.431 57.0452C100.598 57.2117 100.679 57.4517 100.679 57.7692V67.0219C100.679 67.3393 100.602 67.5832 100.443 67.7574C100.288 67.9278 100.056 68.0168 99.7538 68.0168Z" fill="#CE5527"/>
<path d="M108.507 68.1058C107.648 68.1058 106.928 67.951 106.347 67.6412C105.766 67.3315 105.333 66.8786 105.046 66.2824C104.76 65.6862 104.616 64.9583 104.616 64.0989V58.3305H103.103C102.847 58.3305 102.65 58.2647 102.514 58.1369C102.379 58.0091 102.309 57.8311 102.309 57.6065C102.309 57.382 102.379 57.2078 102.514 57.0877C102.65 56.9677 102.847 56.9058 103.103 56.9058H104.616V54.3042C104.616 54.0022 104.698 53.7738 104.864 53.6151C105.031 53.4563 105.255 53.3789 105.542 53.3789C105.828 53.3789 106.049 53.4563 106.208 53.6151C106.366 53.7738 106.444 54.0022 106.444 54.3042V56.9058H109.293C109.549 56.9058 109.746 56.9677 109.882 57.0877C110.017 57.2078 110.087 57.382 110.087 57.6065C110.087 57.8311 110.017 58.0091 109.882 58.1369C109.746 58.2647 109.549 58.3305 109.293 58.3305H106.444V63.9169C106.444 64.7764 106.626 65.4307 106.986 65.872C107.35 66.3172 107.934 66.5379 108.751 66.5379C109.038 66.5379 109.282 66.5069 109.487 66.4488C109.692 66.3869 109.858 66.3598 109.994 66.3598C110.129 66.3443 110.242 66.3908 110.335 66.4953C110.424 66.5998 110.47 66.7818 110.47 67.0373C110.47 67.2193 110.435 67.3857 110.369 67.5367C110.3 67.6877 110.184 67.7922 110.017 67.8542C109.835 67.9161 109.599 67.9703 109.305 68.0245C109.018 68.0787 108.751 68.1058 108.507 68.1058Z" fill="#CE5527"/>
<path d="M112.94 68.063C112.638 68.063 112.41 67.9817 112.251 67.8152C112.092 67.6487 112.015 67.4165 112.015 67.1145V57.6837C112.015 57.3817 112.088 57.1533 112.239 56.9946C112.39 56.8358 112.607 56.7584 112.893 56.7584C113.18 56.7584 113.401 56.8358 113.559 56.9946C113.718 57.1533 113.795 57.3817 113.795 57.6837V59.5149H113.571C113.811 58.6245 114.272 57.9392 114.949 57.4553C115.627 56.9713 116.463 56.7158 117.462 56.6849C117.686 56.6694 117.868 56.7197 118.004 56.832C118.139 56.9443 118.213 57.1378 118.228 57.4088C118.244 57.6643 118.182 57.8695 118.046 58.0205C117.911 58.1715 117.698 58.2605 117.411 58.2915L117.048 58.338C116.022 58.427 115.236 58.7561 114.682 59.3213C114.132 59.8865 113.857 60.6608 113.857 61.6403V67.1145C113.857 67.4165 113.78 67.6487 113.621 67.8152C113.474 67.9778 113.242 68.063 112.94 68.063Z" fill="#CE5527"/>
<path d="M123.571 68.1061C122.816 68.1061 122.142 67.959 121.546 67.6648C120.95 67.3706 120.478 66.968 120.133 66.4531C119.785 65.942 119.614 65.3691 119.614 64.7341C119.614 63.9211 119.823 63.2785 120.238 62.81C120.652 62.3416 121.337 62.0125 122.297 61.8151C123.253 61.6176 124.562 61.5208 126.223 61.5208H127.241V62.721H126.246C125.023 62.721 124.063 62.7791 123.362 62.8913C122.661 63.0036 122.169 63.1972 121.891 63.4682C121.612 63.7392 121.473 64.1225 121.473 64.6219C121.473 65.2413 121.685 65.7446 122.119 66.1356C122.549 66.5266 123.133 66.724 123.873 66.724C124.477 66.724 125.007 66.5808 125.468 66.2943C125.929 66.0078 126.289 65.6168 126.552 65.1174C126.815 64.618 126.947 64.045 126.947 63.3985V60.8201C126.947 59.8871 126.757 59.2096 126.382 58.7954C126.006 58.3811 125.387 58.1721 124.527 58.1721C124.001 58.1721 123.47 58.2418 122.944 58.3773C122.417 58.5128 121.86 58.7334 121.271 59.0315C121.058 59.1361 120.88 59.1709 120.729 59.1322C120.578 59.0935 120.458 59.016 120.369 58.896C120.28 58.776 120.226 58.6366 120.21 58.4779C120.195 58.3192 120.23 58.1643 120.311 58.0133C120.392 57.8623 120.524 57.7423 120.706 57.6494C121.368 57.3165 122.026 57.0765 122.673 56.9255C123.319 56.7745 123.939 56.7009 124.527 56.7009C125.476 56.7009 126.261 56.8558 126.881 57.1655C127.5 57.4752 127.957 57.9436 128.259 58.5669C128.561 59.1941 128.712 59.9955 128.712 60.975V67.1035C128.712 67.4054 128.639 67.6377 128.495 67.8042C128.352 67.9706 128.143 68.0519 127.872 68.0519C127.586 68.0519 127.365 67.9706 127.218 67.8042C127.067 67.6377 126.993 67.4054 126.993 67.1035V65.3381H127.198C127.078 65.9111 126.846 66.4027 126.509 66.8092C126.169 67.2157 125.75 67.5332 125.255 67.7577C124.748 67.9939 124.19 68.1061 123.571 68.1061Z" fill="#CE5527"/>
</svg>
