<svg id="Layer_1" enable-background="new 0 0 512 512" viewBox="0 0 512 512" xmlns="http://www.w3.org/2000/svg"><g clip-rule="evenodd" fillRule="evenodd"><path d="m416.16 477.64c-63.18-152.87 54.81-155.23 65.27-278.85.27-3.16-.69-5.99-2.83-8.32s-4.86-3.51-8.05-3.51h-383c-2.99 0-5.6 1.07-7.72 3.21-2.14 2.11-3.21 4.72-3.19 7.74.08 22.9-.22 43.66-38.25 92.48-23.72 38.39 12.05 38.64 28.78 39.1-17.27 14.88-1.21 27.95 8.51 30.75-19.17 7.83-13.56 25.37 3.51 31.19-28.12 65.98 21.58 68.37 91.6 54.12l10.65 43.85c2.09 8.65 9.61 14.58 18.54 14.58h198.53c6.56 0 12.22-3.02 15.84-8.48 3.68-5.45 4.31-11.79 1.81-17.86z" fill="#fbbd80"/><path d="m224.75 119.54h108.63c7.19 0 13.07 5.9 13.07 13.1v108.63c0 7.17-5.88 13.07-13.07 13.07h-108.63c-7.19 0-13.07-5.9-13.07-13.07v-108.63c-.01-7.2 5.87-13.1 13.07-13.1z" fill="#ffd400"/><g fill="#ff4646"><path d="m440.52 104.74c8.59 0 15.57 6.97 15.57 15.57 0 8.59-6.97 15.54-15.57 15.54-8.59 0-15.57-6.95-15.57-15.54 0-8.6 6.98-15.57 15.57-15.57z"/><path d="m312.78 8c8.59 0 15.57 6.97 15.57 15.57 0 8.59-6.97 15.57-15.57 15.57-8.59 0-15.57-6.97-15.57-15.57s6.98-15.57 15.57-15.57z"/><path d="m245.37 8c8.59 0 15.54 6.97 15.54 15.57 0 8.59-6.95 15.57-15.54 15.57s-15.57-6.97-15.57-15.57 6.97-15.57 15.57-15.57z"/><path d="m117.63 104.74c-8.59 0-15.57 6.97-15.57 15.57 0 8.59 6.97 15.54 15.57 15.54s15.54-6.95 15.54-15.54c0-8.6-6.95-15.57-15.54-15.57z"/><path d="m390.3 46.06c8.59 0 15.54 6.97 15.54 15.57 0 8.59-6.95 15.57-15.54 15.57s-15.57-6.97-15.57-15.57 6.97-15.57 15.57-15.57z"/><path d="m167.85 46.06c-8.59 0-15.57 6.97-15.57 15.57 0 8.59 6.97 15.57 15.57 15.57 8.59 0 15.57-6.97 15.57-15.57s-6.98-15.57-15.57-15.57z"/></g><path d="m106.78 186.95h-19.22c-2.99 0-5.6 1.07-7.72 3.21-2.14 2.11-3.21 4.72-3.19 7.74.08 22.9-.22 43.66-38.25 92.48-23.72 38.39 12.05 38.64 28.78 39.1-17.27 14.88-1.21 27.95 8.51 30.75-19.17 7.83-13.56 25.37 3.51 31.19-21.39 50.22 2.28 63.6 45.67 60.85-30.62-2.47-44.43-18.67-26.47-60.85-17.08-5.82-22.68-23.37-3.51-31.19-9.72-2.8-25.78-15.87-8.48-30.75-16.75-.47-52.53-.71-28.8-39.1 38.03-48.82 38.36-69.58 38.25-92.48 0-3.02 1.04-5.63 3.19-7.74 2.1-2.14 4.71-3.21 7.73-3.21zm64.86 262.02 9.83 40.45c2.09 8.65 9.61 14.58 18.54 14.58h19.19c-8.92 0-16.42-5.93-18.54-14.58l-10.63-43.85c-6.31 1.29-12.46 2.41-18.39 3.4z" fill="#e2aa73"/><path d="m224.75 119.54h13.21c-7.19 0-13.07 5.9-13.07 13.1v108.63c0 7.17 5.88 13.07 13.07 13.07h-13.21c-7.19 0-13.07-5.9-13.07-13.07v-108.63c-.01-7.2 5.87-13.1 13.07-13.1z" fill="#e6bf00"/></g><path d="m484.56 185.13c-3.6-3.98-8.55-6.18-13.95-6.18h-22.05v-36.49c9.07-3.28 15.56-11.97 15.56-22.16 0-12.99-10.57-23.56-23.56-23.56s-23.56 10.58-23.56 23.57c0 10.18 6.5 18.88 15.56 22.16v36.49h-34.27v-95.17c9.07-3.28 15.56-11.97 15.56-22.16 0-12.99-10.57-23.56-23.56-23.56s-23.56 10.57-23.56 23.56c0 10.18 6.5 18.88 15.56 22.16v95.17h-27.84v-46.32c0-11.61-9.45-21.06-21.06-21.06h-12.61v-65.86c9.07-3.28 15.56-11.97 15.56-22.16.02-12.99-10.55-23.56-23.54-23.56s-23.56 10.57-23.56 23.56c0 10.18 6.5 18.88 15.56 22.16v65.86h-51.45v-65.86c9.07-3.28 15.56-11.97 15.56-22.16.01-12.99-10.56-23.56-23.55-23.56s-23.56 10.57-23.56 23.56c0 10.18 6.5 18.88 15.56 22.16v65.86h-12.61c-11.61 0-21.06 9.45-21.06 21.06v46.32h-27.84v-95.17c9.07-3.28 15.56-11.97 15.56-22.16 0-12.99-10.57-23.56-23.56-23.56s-23.56 10.57-23.56 23.56c0 10.18 6.5 18.88 15.56 22.16v95.17h-34.24v-36.49c9.07-3.28 15.56-11.97 15.56-22.16 0-12.99-10.57-23.56-23.56-23.56s-23.56 10.57-23.56 23.56c0 10.18 6.5 18.88 15.56 22.16v36.49h-22.02c-5.13 0-9.76 1.92-13.43 5.58-3.63 3.68-5.53 8.33-5.48 13.41.08 21.69.15 40.42-36.58 87.55-.18.23-.34.46-.49.71-9.35 15.13-11.48 26.97-6.5 36.21 5.24 9.71 16.72 13.02 27.43 14.25-1.29 4.04-1.15 7.69-.52 10.59 1.2 5.49 4.56 10.16 8.73 13.73-4.62 5.38-5.17 11.05-5.08 13.95.24 8.08 5.27 15.61 13.35 20.55-8.24 22.37-7.73 38.83 1.53 50.18 13.35 16.36 41.75 19.21 94.32 9.24l8.83 36.41c2.95 12.18 13.76 20.69 26.31 20.69h198.54c9.2 0 17.41-4.38 22.53-12.04 5.11-7.66 6.01-16.92 2.49-25.37-36.08-87.28-10.85-122.44 18.36-163.14 20.2-28.15 43.1-60.06 47.49-111.94.49-5.46-1.22-10.45-4.86-14.39zm-44-72.39c4.17 0 7.57 3.39 7.57 7.57s-3.4 7.57-7.57 7.57-7.57-3.39-7.57-7.57 3.39-7.57 7.57-7.57zm-50.26-58.68c4.17 0 7.57 3.39 7.57 7.57 0 4.17-3.4 7.57-7.57 7.57s-7.57-3.39-7.57-7.57 3.4-7.57 7.57-7.57zm-77.5-38.07c4.17 0 7.57 3.39 7.57 7.57 0 4.17-3.4 7.57-7.57 7.57s-7.57-3.39-7.57-7.57c0-4.17 3.4-7.57 7.57-7.57zm-67.44 0c4.17 0 7.57 3.39 7.57 7.57 0 4.17-3.4 7.57-7.57 7.57s-7.57-3.39-7.57-7.57c.01-4.17 3.4-7.57 7.57-7.57zm-77.49 38.07c4.17 0 7.57 3.39 7.57 7.57 0 4.17-3.4 7.57-7.57 7.57s-7.57-3.39-7.57-7.57 3.39-7.57 7.57-7.57zm-50.23 58.68c4.17 0 7.57 3.39 7.57 7.57s-3.4 7.57-7.57 7.57-7.57-3.39-7.57-7.57 3.39-7.57 7.57-7.57zm102.04 19.9c0-2.75 2.32-5.07 5.07-5.07h108.65c2.75 0 5.07 2.32 5.07 5.07v108.62c0 2.75-2.32 5.07-5.07 5.07h-108.64c-2.75 0-5.07-2.32-5.07-5.07v-108.62zm253.82 65.48c-4.02 47.52-24.63 76.24-44.55 104-30.66 42.72-59.62 83.08-20.14 178.59 1.48 3.56 1.13 7.15-1.02 10.37-2.18 3.27-5.29 4.92-9.23 4.92h-198.55c-5.22 0-9.55-3.4-10.77-8.46l-10.63-43.85c-1.01-4.18-5.15-6.81-9.36-5.95-17.92 3.65-72.47 14.75-86.3-2.2-7.5-9.19-2.16-27.34 3.63-40.95.87-2.04.85-4.36-.05-6.39s-2.61-3.59-4.72-4.31c-6.55-2.24-10.07-6.44-10.16-9.44-.1-3.5 4.9-5.92 7.06-6.81 3.15-1.29 5.14-4.43 4.96-7.82s-2.49-6.31-5.76-7.25c-4.22-1.22-9.47-5.11-10.26-8.73-.63-2.91 2.25-6.11 4.78-8.29 2.5-2.15 3.42-5.62 2.32-8.73s-4-5.22-7.3-5.32l-1-.03c-7.8-.22-24.03-.67-27.26-6.66-1.89-3.5.23-10.73 5.81-19.85 39.86-51.24 39.77-73.51 39.68-97.13-.01-.87.22-1.42.83-2.04.64-.64 1.18-.86 2.09-.86h116.1v46.32c0 11.61 9.45 21.06 21.06 21.06h108.65c11.61 0 21.06-9.45 21.06-21.06v-46.32h116.14c.91 0 1.5.25 2.16.98.62.69.81 1.25.73 2.21zm-232.05 22.75c1.03.45 2.11.66 3.17.66 3.09 0 6.03-1.8 7.34-4.82l3.45-7.96h24.49l3.45 7.97c1.76 4.05 6.46 5.91 10.51 4.16 4.05-1.76 5.91-6.46 4.16-10.51l-23.05-53.18c-1.27-2.92-4.15-4.82-7.33-4.82-3.19 0-6.07 1.89-7.33 4.82l-23.02 53.18c-1.75 4.04.11 8.75 4.16 10.5zm26.2-40.4 5.32 12.29h-10.64zm37.89 33.07v-53.18c0-4.42 3.58-7.99 7.99-7.99s7.99 3.58 7.99 7.99v53.18c0 4.42-3.58 7.99-7.99 7.99s-7.99-3.58-7.99-7.99z"/></svg>