<svg clip-rule="evenodd" fillRule="evenodd" stroke-linecap="round" stroke-linejoin="round" stroke-miterlimit="1.5" viewBox="0 0 510 510" xmlns="http://www.w3.org/2000/svg"><g><path d="m38.336 290.193 11.948-18.646 16.663 14.585m240.515 167.499c-16.746 4.417-34.326 6.77-52.452 6.77-106.13 0-193.566-80.672-204.28-183.988" fill="none" stroke="#000" strokeWidth="16"/><path d="m61.009 291.566c17.157 91.505 97.548 160.835 194.001 160.835 17.42 0 34.317-2.26 50.412-6.506 4.269-1.126 8.65 1.426 9.776 5.695 1.126 4.27-1.426 8.65-5.695 9.776-17.398 4.589-35.662 7.035-54.493 7.035-104.366 0-191.33-75.091-209.776-174.145l-.162.253c-2.382 3.718-7.334 4.802-11.052 2.42-3.717-2.382-4.802-7.334-2.42-11.052l11.948-18.646c1.256-1.961 3.305-3.277 5.611-3.604 2.307-.327 4.641.367 6.393 1.901l16.664 14.585c3.323 2.908 3.659 7.966.751 11.288-2.908 3.323-7.966 3.659-11.289.751zm404.882-3.807.275-.215c3.482-2.715 8.513-2.093 11.228 1.389s2.093 8.513-1.389 11.228l-17.463 13.618c-1.837 1.432-4.207 1.993-6.49 1.536-2.284-.458-4.255-1.888-5.399-3.917l-10.872-19.292c-2.168-3.847-.804-8.73 3.042-10.897 3.847-2.168 8.73-.805 10.897 3.041l.41.728c1.49-9.77 2.263-19.776 2.263-29.96 0-108.939-88.444-197.383-197.383-197.383-22.996 0-45.079 3.939-65.61 11.182-4.163 1.469-8.736-.719-10.205-4.882-1.469-4.164.718-8.737 4.882-10.206 22.196-7.831 46.071-12.094 70.933-12.094 117.769 0 213.383 95.614 213.383 213.383 0 11.132-.855 22.066-2.502 32.741z" fill="#a79ba7"/><g><path d="m250.432 137.044-95.312 54.993c-2.934 1.702-4.578 4.577-4.578 7.923v110.101c0 3.346 1.644 6.222 4.578 7.924l95.312 55.05c2.935 1.644 6.221 1.644 9.156 0l95.312-55.05c2.934-1.702 4.577-4.578 4.577-7.924v-110.101c0-3.346-1.643-6.221-4.577-7.923l-95.312-54.993c-2.935-1.702-6.221-1.702-9.156 0z" fill="#f2d1a5"/><path d="m250.432 137.044-95.312 54.993c-1.467.88-2.641 1.995-3.404 3.345l103.294 59.629 103.294-59.629c-.822-1.35-1.937-2.465-3.404-3.345l-95.312-54.993c-2.935-1.702-6.221-1.702-9.156 0z" fill="#e3a76f"/><path d="m151.716 195.382c-.763 1.35-1.174 2.934-1.174 4.578v110.101c0 3.346 1.644 6.222 4.578 7.924l95.312 55.05c1.467.822 2.993 1.233 4.578 1.233v-119.257z" fill="#ecba78"/><path d="m322.386 216.099-30.284 17.49-104.468-60.274 30.284-17.549z" fill="#c48958"/><path d="m298.91 277.137 18.898-10.858c2.934-1.702 4.578-4.578 4.578-7.923v-42.257l-30.284 17.49v39.615c0 1.702.821 3.111 2.289 3.933 1.408.88 3.11.88 4.519 0z" fill="#e3a76f"/></g><g><path d="m102.285 214.262h-36.725v16.899c0 6.121 5.007 11.141 11.141 11.141h14.456c6.121 0 11.128-5.02 11.128-11.141z" fill="#b1b1b5"/><path d="m53.882 192.558.255 16.322c.094 6.12 5.007 11.14 11.141 11.14h37.302c6.121 0 11.221-5.02 11.127-11.14l-.241-16.322c-19.45.617-40 0-59.584 0z" fill="#d1d1d6"/><path d="m124.486 175.457c3.288-56.107 27.61-53.838 27.61-91.905 0-37.852-30.684-68.55-68.549-68.55-37.852 0-68.537 30.698-68.537 68.55 0 38.067 24.309 35.798 27.611 91.905 1.476 11.087 7.798 13.584 11.463 13.584 54.55 0 64.214 5.396 70.402-13.584z" fill="#ffe177"/><path d="m65.614 180.705v-74.63h-9.826c-6.067 0-11.57-2.47-15.557-6.456-3.986-3.987-6.469-9.503-6.469-15.557 0-6.067 2.483-11.57 6.469-15.57 3.987-3.987 9.49-6.457 15.557-6.457 6.054 0 11.571 2.47 15.557 6.457 3.987 4 6.457 9.503 6.457 15.57v9.825h11.489v-9.825c0-6.067 2.484-11.57 6.47-15.57 3.987-3.987 9.49-6.457 15.557-6.457s11.57 2.47 15.557 6.457c3.987 4 6.47 9.503 6.47 15.57 0 6.054-2.483 11.57-6.47 15.557-3.987 3.986-9.49 6.456-15.557 6.456h-9.839v74.63h-12.188v-74.63h-11.489v74.63zm0-86.818v-9.825c0-2.698-1.101-5.168-2.886-6.953s-4.242-2.886-6.94-2.886-5.154 1.101-6.939 2.886-2.899 4.255-2.899 6.953 1.114 5.154 2.899 6.939c1.785 1.786 4.241 2.886 6.939 2.886zm35.865 0h9.839c2.698 0 5.154-1.1 6.94-2.886 1.785-1.785 2.899-4.241 2.899-6.939s-1.114-5.168-2.899-6.953c-1.786-1.785-4.242-2.886-6.94-2.886s-5.154 1.101-6.939 2.886c-1.786 1.785-2.9 4.255-2.9 6.953z" fill="#ffc338" fillRule="nonzero"/><path d="m124.486 175.457c3.288-56.107 27.61-53.838 27.61-91.905 0-37.852-30.684-68.55-68.549-68.55-1.276 0-2.537.04-3.799.107 36.08 1.987 64.738 31.866 64.738 68.443 0 38.067-24.322 35.798-27.624 91.905-3.665 11.262-8.564 13.946-23.356 14.255 20.859.309 26.738-1.248 30.98-14.255z" fill="#ffd064"/><path d="m94.956 220.02h7.624c6.121 0 11.221-5.02 11.127-11.14l-.241-16.322c-2.524.08-5.061.134-7.611.188l.242 16.134c.094 6.12-5.007 11.14-11.141 11.14z" fill="#b1b1b5"/><path d="m42.621 175.457v11.141c0 6.134 5.02 11.141 11.141 11.141h59.583c6.121 0 11.141-5.007 11.141-11.141v-11.141z" fill="#eceff1"/><path d="m105.721 197.739h7.624c6.121 0 11.141-5.007 11.141-11.141v-11.141h-7.624v11.141c0 6.134-5.007 11.141-11.141 11.141z" fill="#d1d1d6"/></g><g><path d="m428.073 341.743c7.381 1.757 14.427 4.678 20.881 8.655l13.569-6.02 15.987 15.987-6.02 13.569c3.977 6.453 6.898 13.499 8.655 20.881l13.845 5.329v22.618l-13.845 5.329c-1.757 7.371-4.678 14.417-8.655 20.871l6.02 13.569-15.987 15.997-13.569-6.03c-6.454 3.977-13.5 6.908-20.881 8.665l-5.329 13.835h-22.618l-5.329-13.845c-7.372-1.757-14.418-4.678-20.872-8.655l-13.569 6.03-15.996-15.997 6.029-13.559c-3.976-6.464-6.907-13.51-8.664-20.881l-13.835-5.329v-22.618l13.835-5.329c1.757-7.382 4.688-14.428 8.664-20.881l-6.029-13.569 15.996-15.987 13.56 6.02c6.463-3.977 13.509-6.898 20.881-8.655l5.329-13.845h22.618z" fill="#ffe177"/><path d="m457.964 346.401 4.559-2.023 15.987 15.987-6.02 13.569c3.977 6.453 6.898 13.499 8.655 20.881l13.845 5.329v22.618l-13.845 5.329c-1.757 7.371-4.678 14.417-8.655 20.871l6.02 13.569-15.987 15.997-4.559-2.023 13.973-13.974-6.029-13.569c3.977-6.454 6.898-13.5 8.654-20.871l13.846-5.329v-22.618l-13.846-5.329c-1.756-7.382-4.677-14.428-8.654-20.881l6.029-13.569zm-99.631 0 2.023-2.023 13.56 6.02c-.958.533-1.905 1.085-2.833 1.667zm69.74-4.658c7.381 1.757 14.427 4.678 20.881 8.655l-3.74 1.667c-6.454-3.977-16.342-8.565-23.723-10.322l-5.329-13.845h6.582zm-54.148 130.755-13.569 6.03-2.023-2.023 12.75-5.665c.928.573 1.875 1.125 2.842 1.658zm75.029 0c-6.454 3.977-13.5 6.908-20.881 8.665l-5.329 13.835h-6.582l5.329-13.835c7.381-1.757 17.269-6.346 23.733-10.323z" fill="#ffd064"/><path d="m411.436 372.02c21.778 0 39.432 17.653 39.432 39.432 0 21.77-17.654 39.424-39.432 39.424-21.771 0-39.424-17.654-39.424-39.424 0-21.779 17.653-39.432 39.424-39.432z" fill="#eceff1"/><path d="m411.436 372.02c.897 0 1.786.032 2.675.096-20.529 1.37-36.765 18.454-36.765 39.336 0 20.873 16.236 37.958 36.765 39.336-.889.056-1.778.088-2.675.088-21.771 0-39.424-17.654-39.424-39.424 0-21.779 17.653-39.432 39.424-39.432z" fill="#d1d1d6"/></g></g></svg>