<svg id="Layer_1" enable-background="new 0 0 66 66" viewBox="0 0 66 66" xmlns="http://www.w3.org/2000/svg"><g><g><g><g><path d="m54.9 6.6v3h-2v-3c0-.4-.3-.7-.7-.7h-12.5v-2h12.5c1.5 0 2.7 1.2 2.7 2.7z" fill="#3b4c56"/></g><path d="m52.5 5h-11.6v.9h11.2c.4 0 .7.3.7.7v2.6h.8v-3c.1-.7-.4-1.2-1.1-1.2z" fill="#465c6a"/></g><g><g><g><path d="m52 18v4.5c0 .6-.5 1.2-1.2 1.2-.6 0-1.2-.5-1.2-1.2v-4.5z" fill="#d4d8db"/><path d="m50.8 18v5.6c-.6 0-1.2-.5-1.2-1.2v-4.4z" fill="#e6e6e8"/></g><g><path d="m58.1 18v4.5c0 .6-.5 1.2-1.2 1.2-.6 0-1.2-.5-1.2-1.2v-4.5z" fill="#d4d8db"/><path d="m56.9 18v5.6c-.6 0-1.2-.5-1.2-1.2v-4.4z" fill="#e6e6e8"/></g></g><path d="m53.7 9.1c-3.2.1-5.7 2.9-5.7 6.1v2.6c0 .3.3.6.6.6h10.4c.3 0 .6-.3.6-.6v-2.8c.1-3.4-2.6-6-5.9-5.9z" fill="#fad22c"/><path d="m53.7 9.1v9.3h5.4c.3 0 .6-.3.6-.6v-2.8c0-3.4-2.7-6-6-5.9z" fill="#e0b624"/></g></g><g><g><g><path d="m14.3 60v-3h2v3c0 .4.3.7.7.7h12.5v2h-12.5c-1.5-.1-2.7-1.3-2.7-2.7z" fill="#3b4c56"/></g><path d="m16.7 61.6h11.5v-.9h-11.2c-.4 0-.7-.3-.7-.7v-2.6h-.8v3c0 .6.5 1.2 1.2 1.2z" fill="#465c6a"/></g><g><g><g><path d="m17.2 48.6v-4.5c0-.6.5-1.2 1.2-1.2.6 0 1.2.5 1.2 1.2v4.5z" fill="#d4d8db"/><path d="m18.4 48.6v-5.6c.6 0 1.2.5 1.2 1.2v4.5h-1.2z" fill="#e6e6e8"/></g><g><path d="m11.1 48.6v-4.5c0-.6.5-1.2 1.2-1.2.6 0 1.2.5 1.2 1.2v4.5z" fill="#d4d8db"/><path d="m12.2 48.6v-5.6c.6 0 1.2.5 1.2 1.2v4.5h-1.2z" fill="#e6e6e8"/></g></g><path d="m15.5 57.5c3.2-.1 5.7-2.9 5.7-6.1v-2.6c0-.3-.3-.6-.6-.6h-10.5c-.3 0-.6.3-.6.6v2.8c0 3.3 2.7 6 6 5.9z" fill="#fad22c"/><path d="m15.5 57.5v-9.3h-5.4c-.3 0-.6.3-.6.6v2.8c0 3.3 2.7 6 6 5.9z" fill="#e0b624"/></g></g><g><path d="m63.1 25.2h-36.2c-1 0-1.8.8-1.8 1.8v36.2c0 1 .8 1.8 1.8 1.8h36.2c1 0 1.8-.8 1.8-1.8v-36.2c0-1-.8-1.8-1.8-1.8z" fill="#e6e6e8"/><path d="m63.1 25.2h-36.2c-1 0-1.8.8-1.8 1.8v36.2c0 1 .8 1.8 1.8 1.8h36.2c1 0 1.8-.8 1.8-1.8v-36.2c0-1-.8-1.8-1.8-1.8z" fill="#e6e6e8"/><path d="m64.9 34.4v-7.4c0-1-.8-1.8-1.8-1.8h-36.2c-1 0-1.8.8-1.8 1.8v7.4z" fill="#e8664a"/><g fill="#e6e6e8"><circle cx="59.6" cy="29.8" r="1.8"/><circle cx="53.8" cy="29.8" r="1.8"/><circle cx="47.9" cy="29.8" r="1.8"/></g><g><path d="m45 65h18.1c1 0 1.8-.8 1.8-1.8v-28.8h-19.9z" fill="#d4d8db"/><path d="m45 25.2h-18.1c-1 0-1.8.8-1.8 1.8v7.4h19.9z" fill="#d95239"/></g><g><g><path d="m31.5 39.4h27v10.3h-27z" fill="#6fac43"/></g></g><g><g><path d="m45 39.4h13.5v10.3h-13.5z" fill="#a3cd44"/></g></g><g><g fill="#6fac43"><path d="m31.5 52.8h7.7v2.9h-7.7z"/><path d="m31.5 57.3h7.7v2.9h-7.7z"/></g><g fill="#6fac43"><path d="m41.2 52.8h7.7v2.9h-7.7z"/><path d="m41.2 57.3h7.7v2.9h-7.7z"/></g><g fill="#d4d8db"><path d="m50.8 52.8h7.7v2.9h-7.7z"/><path d="m50.8 57.3h7.7v2.9h-7.7z"/></g></g><g fill="#a3cd44"><g><path d="m45 52.8h3.8v2.9h-3.8z"/><path d="m45 57.3h3.8v2.9h-3.8z"/></g><g><path d="m50.7 52.8h7.8v2.9h-7.8z"/><path d="m50.7 57.3h7.8v2.9h-7.8z"/></g></g></g><g><path d="m39.1 1h-36.2c-1 0-1.8.8-1.8 1.8v36.2c0 1 .8 1.8 1.8 1.8h36.2c1 0 1.8-.8 1.8-1.8v-36.2c0-1-.8-1.8-1.8-1.8z" fill="#e6e6e8"/><path d="m39.1 1h-36.2c-1 0-1.8.8-1.8 1.8v36.2c0 1 .8 1.8 1.8 1.8h36.2c1 0 1.8-.8 1.8-1.8v-36.2c0-1-.8-1.8-1.8-1.8z" fill="#e6e6e8"/><path d="m40.9 10.2v-7.4c0-1-.8-1.8-1.8-1.8h-36.2c-1 0-1.8.8-1.8 1.8v7.4z" fill="#e8664a"/><g fill="#e6e6e8"><circle cx="35.6" cy="5.6" r="1.8"/><circle cx="29.7" cy="5.6" r="1.8"/><circle cx="23.8" cy="5.6" r="1.8"/></g><g><path d="m21 40.8h18.1c1 0 1.8-.8 1.8-1.8v-28.8h-19.9z" fill="#d4d8db"/><path d="m21 1h-18.1c-1 0-1.8.8-1.8 1.8v7.4h19.9z" fill="#d95239"/></g><g><g><path d="m7.5 15.2h27v10.3h-27z" fill="#1e87b7"/></g></g><g><g><path d="m21 15.2h13.5v10.3h-13.5z" fill="#1576ac"/></g></g><g fill="#1e87b7"><path d="m7.8 29.6 3 3-3 2.9z"/><path d="m14.3 29.1-3 2.9-3-2.9z"/><path d="m11.3 33.1 3 3h-6z"/><path d="m14.8 29.6v5.9l-3-2.9z"/></g><path d="m17.5 29.6 3 3-3 2.9z" fill="#1e87b7"/><path d="m24 29.1-3 2.9-3-2.9z" fill="#1576ac"/><path d="m21 33.1 3 3h-6z" fill="#1e87b7"/><path d="m24.5 29.6v5.9l-3-2.9z" fill="#1576ac"/><g fill="#1576ac"><path d="m27.2 29.6 2.9 3-2.9 2.9z"/><path d="m33.6 29.1-2.9 2.9-3-2.9z"/><path d="m30.7 33.1 2.9 3h-5.9z"/><path d="m34.2 29.6v5.9l-3-2.9z"/></g><path d="m18 29.1 3 2.9v-2.9z" fill="#1e87b7"/><path d="m21 33.1v3h3z" fill="#1576ac"/></g></g></svg>