<svg id="Capa_1" enable-background="new 0 0 512 512" height="512" viewBox="0 0 512 512" width="512" xmlns="http://www.w3.org/2000/svg"><g><path d="m307.345 447.598c-12.092 26.347-29.202 47.458-40.286 59.543-5.942 6.478-16.175 6.478-22.117 0-11.084-12.085-28.194-33.196-40.286-59.543l51.344-63.873z" fill="#9fe066"/><path d="m267.058 507.141c11.084-12.085 28.194-33.196 40.286-59.543l-51.344-63.873v128.275c4.044 0 8.088-1.62 11.058-4.859z" fill="#4aca7b"/><path d="m307.345 64.402s-48.961 57.527-51.345 63.873c-2.384-6.346-51.345-63.873-51.345-63.873 12.092-26.347 29.202-47.458 40.286-59.543 5.942-6.478 16.175-6.478 22.117 0 11.084 12.085 28.195 33.196 40.287 59.543z" fill="#9fe066"/><path d="m307.345 64.402c-12.092-26.347-29.202-47.458-40.286-59.543-2.971-3.239-7.015-4.859-11.059-4.859v128.275c2.384-6.346 51.345-63.873 51.345-63.873z" fill="#4aca7b"/><path d="m190.429 142.437-74.682-26.69c-2.709-28.864 1.55-55.701 5.106-71.709 1.906-8.582 10.769-13.699 19.154-11.059 15.639 4.924 41.006 14.651 64.649 31.423z" fill="#ffdb6c"/><path d="m142.437 190.429-78.035 14.227c-16.772-23.643-26.499-49.01-31.423-64.649-2.64-8.385 2.477-17.248 11.059-19.154 16.008-3.556 42.844-7.815 71.709-5.106z" fill="#9fe066"/><path d="m128.275 256-63.873 51.345c-26.347-12.092-47.458-29.202-59.543-40.286-6.478-5.942-6.478-16.175 0-22.117 12.085-11.084 33.196-28.194 59.543-40.286z" fill="#ffdb6c"/><path d="m142.437 321.571-26.69 74.682c-28.864 2.709-55.701-1.55-71.709-5.106-8.582-1.906-13.699-10.769-11.059-19.154 4.924-15.639 14.651-41.006 31.423-64.649z" fill="#9fe066"/><path d="m204.655 447.598c-23.643 16.772-49.01 26.499-64.649 31.423-8.385 2.64-17.248-2.477-19.154-11.059-3.556-16.008-7.815-42.844-5.106-71.709l74.682-26.69z" fill="#ffdb6c"/><path d="m371.993 479.021c-15.639-4.924-41.006-14.651-64.649-31.423l14.227-78.024v-.011l74.682 26.69c2.709 28.864-1.55 55.701-5.106 71.709-1.906 8.582-10.769 13.699-19.154 11.059z" fill="#fcc100"/><path d="m467.962 391.147c-16.008 3.556-42.844 7.815-71.709 5.106l-26.69-74.682h.011l78.024-14.227c16.772 23.643 26.499 49.01 31.423 64.649 2.64 8.385-2.477 17.248-11.059 19.154z" fill="#4aca7b"/><path d="m507.141 267.058c-12.085 11.084-33.196 28.194-59.543 40.286l-63.873-51.344 63.873-51.345c26.347 12.092 47.458 29.202 59.543 40.286 6.479 5.942 6.479 16.176 0 22.117z" fill="#fcc100"/><path d="m479.021 140.007c-4.924 15.639-14.651 41.006-31.423 64.649l-78.024-14.227h-.011l26.69-74.682c28.864-2.709 55.701 1.55 71.709 5.106 8.582 1.906 13.699 10.769 11.059 19.154z" fill="#4aca7b"/><path d="m396.253 115.747-74.682 26.69v-.011l-14.227-78.024c23.643-16.772 49.01-26.499 64.649-31.423 8.385-2.64 17.248 2.477 19.154 11.059 3.556 16.008 7.815 42.844 5.106 71.709z" fill="#fcc100"/><path d="m256 128.275 17 52.725-17 75-49-65.571-16.571-47.992-.011-17.601c0-21.803 5.932-42.353 14.238-60.434 16.24 11.506 31.664 26.342 42.56 45.216 3.494 6.052 6.4 12.311 8.784 18.657z" fill="#223f75"/><path d="m321.582 124.836-.011 17.59v.011l-12.071 47.981-53.5 65.582v-127.725c2.384-6.346 5.29-12.605 8.784-18.657 10.896-18.875 26.32-33.711 42.56-45.216 8.306 18.08 14.238 38.631 14.238 60.434z" fill="#00204c"/><path d="m396.253 115.747c-1.85 19.811-6.977 40.579-17.873 59.454l-8.817 15.228-28.063 32.78-85.5 32.791 65.571-113.563 15.228-8.817c18.875-10.896 39.644-16.023 59.454-17.873z" fill="#de0062"/><path d="m447.598 204.655c-11.505 16.24-26.342 31.664-45.216 42.56-6.052 3.494-12.311 6.401-18.657 8.784l-55.225 12.501-72.5-12.5 113.563-65.571h.011l17.59-.011c21.803 0 42.354 5.932 60.434 14.237z" fill="#f34"/><path d="m447.598 307.345c-18.08 8.305-38.631 14.238-60.434 14.238l-17.59-.011h-.011l-57.063-14.227-56.5-51.345h127.725c6.346 2.384 12.605 5.29 18.657 8.784 18.874 10.896 33.711 26.32 45.216 42.561z" fill="#00204c"/><path d="m396.253 396.253c-19.811-1.85-40.579-6.977-59.454-17.873l-15.228-8.817-36.071-39.563-29.5-74 113.563 65.571 8.817 15.228c10.896 18.875 16.023 39.644 17.873 59.454z" fill="#223f75"/><path d="m321.582 387.164c0 21.803-5.932 42.354-14.238 60.434-16.24-11.506-31.664-26.342-42.56-45.216-3.494-6.052-6.4-12.311-8.784-18.657l-11-50.225 11-77.5 65.571 113.563v.011z" fill="#f34"/><path d="m256 256v127.725c-2.384 6.346-5.29 12.605-8.784 18.657-10.896 18.875-26.32 33.711-42.56 45.216-8.305-18.08-14.238-38.631-14.238-60.434l.011-17.601 18.071-52.063z" fill="#fc6658"/><path d="m256 256-65.571 113.563-15.228 8.817c-18.875 10.896-39.643 16.023-59.454 17.873 1.85-19.811 6.977-40.579 17.873-59.454l8.817-15.228 38.563-39.071z" fill="#223f75"/><path d="m256 256-113.563 65.571-17.601.011c-21.803 0-42.354-5.932-60.434-14.238 11.505-16.24 26.342-31.664 45.216-42.56 6.052-3.494 12.311-6.401 18.657-8.784l41.725-14.5z" fill="#2b5aad"/><path d="m256 256h-127.725c-6.346-2.384-12.605-5.29-18.657-8.784-18.875-10.896-33.711-26.32-45.216-42.56 18.08-8.305 38.631-14.238 60.434-14.238l17.601.011 47.981 9.071z" fill="#fc6658"/><path d="m256 256-113.563-65.571-8.817-15.228c-10.896-18.875-16.023-39.643-17.873-59.454 19.811 1.85 40.579 6.977 59.454 17.873l15.228 8.817 18.62 32.248z" fill="#f34"/></g></svg>