<svg id="Layer_1" viewBox="0 0 64 64" xmlns="http://www.w3.org/2000/svg"><path d="m57.87 34.47c2.58-3.11 4.13-7.11 4.13-11.47 0-9.94-8.06-18-18-18s-18 8.06-18 18 8.06 18 18 18c3.06 0 5.94-.77 8.46-2.11l9.54 2.11z" fill="#99c5ff"/><path d="m6.13 52.47c-2.58-3.11-4.13-7.11-4.13-11.47 0-9.94 8.06-18 18-18s18 8.06 18 18-8.06 18-18 18c-3.06 0-5.94-.77-8.46-2.11l-9.54 2.11z" fill="#e65c62"/><circle cx="20" cy="48.5" fill="#f2f2f2" r="1.5"/><path d="m20 33c1.65 0 3 1.35 3 3s-1.35 3-3 3c-.55 0-1 .45-1 1v5h2v-4.1c2.28-.46 4-2.48 4-4.9 0-2.76-2.24-5-5-5s-5 2.24-5 5h2c0-1.65 1.35-3 3-3z" fill="#f2f2f2"/><g fill="#2462b3"><path d="m36 16h16v2h-16z"/><path d="m36 22h16v2h-16z"/><path d="m40 28h12v2h-12z"/></g></svg>