<svg id="Layer_1" enable-background="new 0 0 68 68" viewBox="0 0 68 68" xmlns="http://www.w3.org/2000/svg"><g><path d="m57.6736946 23.0562668v26.0682716c0 2.2116852-1.4589577 4.1582642-3.5817757 4.778904l-18.6980934 5.4666786c-.9126434.2668228-1.8826065.2667389-2.7952003-.0002403l-18.6838226-5.4660072c-2.122406-.6209183-3.5809517-2.5672989-3.5809517-4.7786674v-26.0689393z" fill="#ffd86a"/><path d="m57.6777 23.0545769v26.0700073c0 2.2099609-1.4599609 4.1599731-3.5900879 4.7799683l-18.6899414 5.4700317c-.9199219.2599487-1.8898926.2599487-2.8000488 0l-18.6799316-5.4700317c-2.130127-.6199951-3.5800781-2.5700073-3.5800781-4.7799683v-5.1600342c4.5100098 5.0499878 12.1901855 8.3800049 20.9001465 8.3800049 13.8798828 0 25.1298828-8.4299927 25.1298828-18.8300171 0-3.8699951-1.5498047-7.4699707-4.2199707-10.4599609z" fill="#fccb4f"/><path d="m35.1814384 17.8491478 2.375 16.6458435c-1.7822266 1.0358276-1.4611816-.4048462-3.25-1.4375l-12.9375019-8.6875c-.9025879-.5211792-19.2663574 3.2050781-19.2644043 2.5232544l-.0075684 2.7025757c-.0019531.6818237.4487305 1.3646851 1.3515625 1.8858643l27.4174805 15.8295288c1.7885761 1.0327148 4.6843281 1.0357056 6.4667988-.000061l27.2338829-15.8267212c.8847656-.5141602 1.3266602-1.1864624 1.3286133-1.8594971l.0078125-2.7025757c-2.6423302-2.5604554-33.2363243-13.7502451-30.7216759-9.0732117z" fill="#312944"/><path d="m35.6747704 21.3078728h17.6337891c-9.161377-3.3399658-19.640625-6.2738657-18.1271973-3.4587402z" fill="#2a1777"/><path d="m34.510952 33.1872673c-.0666504-.0435181-.1311035-.0874023-.2045898-.1297607l-12.9375-8.6875c-.9025879-.5211792-19.2663572 3.2050781-19.2644041 2.5232544l-.0075684 2.7025757c-.0019531.6818237.4487305 1.3646851 1.3515625 1.8858643l27.4174805 15.8295288c.9992676.5768433 2.342041.8203735 3.6450195.7530518v-14.8770143z" fill="#28223d"/><g><path d="m64.5533905 25.0361004c1.7886658 1.0326862 1.8032913 2.7100067.0209885 3.7457676l-27.234005 15.8266754c-1.7823181 1.0357704-4.6780586 1.0327682-6.4667244.0000801l-27.4175527-15.8295307c-1.7938339-1.0356693-1.8033116-2.7099972-.0209937-3.7457676l27.2340061-15.8266754c1.782299-1.0357599 4.6728935-1.0357523 6.4667244-.000082z" fill="#423751"/></g><g><path d="m64.5776062 28.7782364-27.239994 15.8300171c-1.7800293 1.039978-4.6799316 1.0300293-6.4599609 0l-27.4199217-15.8300171c-1.8000489-1.0299683-1.8000489-2.7099609-.0200195-3.7399902l11.5600586-6.7199707c-.0100098.1699829-.0100098.3399658-.0100098.5100098 0 7.4899902 8.2099609 13.5699463 18.3300781 13.5699463 10.1298828 0 18.3398438-6.0799561 18.3398438-13.5699463 0-.4300537-.0300293-.8600464-.0800781-1.2800293l12.9799843 7.4899902c1.780029 1.0300293 1.8000485 2.7100219.0200192 3.7399902z" fill="#382e49"/></g><g><path d="m38.8773842 24.6733456c2.1369438 1.2337646 2.1500397 3.2329044.0251236 4.4677715-2.1230774 1.2337971-5.5744171 1.2327442-7.711359-.0010185-2.137043-1.2338238-2.1482258-3.2318573-.0251484-4.4656563 2.124916-1.2348671 5.5743408-1.2349205 7.7113838-.0010967z" fill="#28223d"/></g><g><g><path d="m16.9638329 46.3495598c-.2763672 0-.5-.2236328-.5-.5v-6.6494141c0-1.7944336.9638672-3.4692383 2.5166016-4.3710938l14.7646484-8.5751953c.2373047-.1367188.5439453-.0576172.6835938.1816406.1386719.2387695.0576172.5444336-.1816406.6831055l-14.7646484 8.5751953c-1.2451172.7231445-2.0185547 2.0668945-2.0185547 3.5063477v6.6494141c-.0000001.2763672-.223633.5-.5000001.5z" fill="#ff3d47"/></g></g><g><g><path d="m37.8465729 24.6733456c2.13694 1.2337646 2.1500397 3.2329044.0251198 4.4677715-2.1230774 1.2337971-5.5744171 1.2327442-7.711359-.0010185-2.137043-1.2338238-2.1482258-3.2318573-.0251465-4.4656563 2.1249179-1.2348671 5.5743427-1.2349205 7.7113857-.0010967z" fill="#ff3d47"/></g><g><path d="m37.8676414 29.1445427c-2.119873 1.2300415-5.5698242 1.2300415-7.7099609 0-1.1000977-.6399536-1.6298828-1.4799805-1.6098633-2.3099976.869873.7700195 2.2397461 1.2700195 3.7700195 1.2700195 2.6298828 0 4.7697754-1.460022 4.7697754-3.2600098 0-.2000122-.0300293-.3900146-.079834-.5700073.2998047.1199951.579834.25.8398438.4000244 2.1401367 1.2299806 2.1501465 3.2299806.0200195 4.4699708z" fill="#f72d40"/></g></g><path d="m17.709837 46.5772209 1.1711273 2.8121071c.1247864.2996368.1076336.6639748-.1117268.9032135-.6827507.7446251-2.6434479.7862091-3.4689322.124752-.3073149-.2462502-.3901768-.6812668-.2387781-1.0448036l1.164114-2.795269z" fill="#28223d"/><path d="m18.636034 46.2245598c0 .9213753-.7468891 1.6684914-1.6682644 1.6684914s-1.6685686-.7471161-1.6685686-1.6684914.7471933-1.6684914 1.6685686-1.6684914 1.6682644.7471161 1.6682644 1.6684914z" fill="#423751"/><path d="m18.637661 46.2245598c0 .9199829-.75 1.6699829-1.6699219 1.6699829-.5400391 0-1.0200195-.2600098-1.3200684-.6599731.0900879.0100098.1799316.0200195.2700195.0200195.9699707 0 1.7600098-.6900024 1.7600098-1.5500488 0-.4599609-.2299805-.8699951-.5900879-1.1399536.8601075.0599975 1.5500489.7799682 1.5500489 1.6599731z" fill="#382e49"/></g></svg>