<svg id="Layer_1" enable-background="new 0 0 512 512" viewBox="0 0 512 512" xmlns="http://www.w3.org/2000/svg"><g clip-rule="evenodd" fill-rule="evenodd"><path d="m146.832 40.993h26.542c1.94 16.353 15.851 29.035 32.726 29.035s30.785-12.682 32.725-29.035h26.542c-.421 20.55 5.782 41.811 19.206 57.634l-5.231 141.688 25.842 179.973h-198.168l25.842-179.973-5.232-141.689c13.424-15.822 19.627-37.083 19.206-57.633z" fill="#dfbdf0"/><path d="m281.725 471.007h169.426c5.816 0 10.822-2.273 14.65-6.651 3.828-4.379 5.412-9.643 4.636-15.407l-15.664-116.324c-1.309-9.717-9.482-16.863-19.287-16.863h-138.097c-9.805 0-17.978 7.146-19.286 16.863l-15.664 116.324c-.776 5.764.808 11.029 4.637 15.407 3.827 4.378 8.833 6.651 14.649 6.651z" fill="#ffd266"/><path d="m449.378 166.573-8.465 17.233 40.087 46.821c-43.192 18.584-85.706 2.44-127.541-48.431-53.901-10.668-98.683-18.546-109.603-68.054l61.558 3.108 8.465-17.233c18.379-37.417 63.611-52.85 101.028-34.471 37.417 18.378 52.85 63.61 34.471 101.027z" fill="#dfbdf0"/><path d="m367.796 66.43h19.2v150.963h-19.2z" fill="#fd4755" transform="matrix(.441 -.898 .898 .441 83.634 418.082)"/><path d="m219.04 220.611-54.217 93.908c-8.113 14.052-26.192 18.896-40.244 10.783l-78.861-45.531c-14.052-8.113-18.897-26.192-10.784-40.244l54.218-93.908c4.673-8.095 12.081-13.106 21.334-14.433l57.318-8.216c13.62-1.952 26.407 5.431 31.526 18.202l21.543 53.747c3.477 8.675 2.841 17.598-1.833 25.692zm-43.483-74.668c-6.429-3.712-14.649-1.509-18.361 4.92s-1.509 14.649 4.92 18.361c6.429 3.711 14.649 1.509 18.361-4.92 3.711-6.429 1.508-14.649-4.92-18.361z" fill="#fd4755"/><path d="m101.45 200.205c1.264-2.238 3.371-3.84 5.853-4.509.843-.229 1.686-.342 2.529-.342 1.686 0 3.325.44 4.823 1.311 4.636 2.669 6.228 8.601 3.559 13.223-1.311 2.238-3.371 3.849-5.9 4.518-2.481.66-5.104.318-7.351-.969-2.248-1.292-3.84-3.381-4.495-5.881-.657-2.5-.329-5.113.982-7.351zm-1.498 21.89c3.044 1.751 6.415 2.641 9.833 2.641 1.733 0 3.418-.22 5.151-.67 5.057-1.372 9.318-4.621 11.94-9.177 5.431-9.402 2.201-21.464-7.211-26.891-4.542-2.622-9.88-3.32-14.937-1.962-5.104 1.358-9.318 4.621-11.94 9.168-2.622 4.551-3.324 9.861-1.967 14.941 1.358 5.081 4.589 9.323 9.131 11.95zm31.372 55.252c-4.636-2.669-6.228-8.601-3.559-13.232 1.779-3.1 5.057-4.837 8.428-4.837 1.639 0 3.277.417 4.823 1.297 4.589 2.674 6.181 8.602 3.512 13.232-2.669 4.617-8.569 6.209-13.204 3.54zm21.866 1.461c5.431-9.402 2.201-21.473-7.211-26.891-9.365-5.431-21.445-2.201-26.877 7.201-5.431 9.398-2.201 21.459 7.211 26.886 3.09 1.793 6.461 2.632 9.833 2.632 6.79 0 13.392-3.531 17.044-9.828zm6.274-57.083c2.388-1.377 3.184-4.439 1.826-6.832-1.405-2.388-4.448-3.217-6.836-1.826l-67.941 39.219c-2.388 1.381-3.231 4.439-1.826 6.831.937 1.597 2.622 2.5 4.355 2.5.843 0 1.686-.225 2.482-.674zm2.06-68.362c1.124-1.957 2.95-3.348 5.151-3.938.702-.192 1.451-.29 2.201-.29 1.452 0 2.903.393 4.167 1.143 4.074 2.318 5.432 7.501 3.091 11.528-2.294 4.031-7.492 5.413-11.519 3.09-1.967-1.128-3.325-2.95-3.933-5.127-.562-2.183-.281-4.454.842-6.406zm-1.919 20.195c2.903 1.667 6.087 2.458 9.177 2.458 6.415 0 12.596-3.301 16.014-9.21 5.104-8.808 2.06-20.111-6.742-25.191-8.803-5.09-20.087-2.06-25.191 6.752-2.435 4.261-3.09 9.229-1.826 13.991 1.263 4.757 4.307 8.727 8.568 11.2zm207.288 16.449c33.994 7.07 70.516 16.669 103.573 39.22-34.977 11.218-69.065-1.682-103.573-39.22zm-116.451-70.53c12.315 39.706 51.646 47.47 100.764 57.167 33.104 6.541 69.674 13.771 104.416 32.023l-17.84-20.832-133.634-65.651zm24.068 115.836h-58.202l7.07-12.207c5.478-9.482 6.228-19.881 2.154-30.051l-21.539-53.749c-5.947-14.792-21.117-23.552-36.897-21.291l-33.572 4.823-.843-22.494c11.706-14.511 18.495-33.98 19.151-54.348h17.371c4.027 16.828 19.198 29.03 36.897 29.03s32.87-12.202 36.897-29.03h17.418c.609 20.368 7.445 39.837 19.104 54.348l-.374 10.573-35.024-1.77c-1.545-.08-3.044.58-4.074 1.77s-1.405 2.781-1.077 4.299c5.572 25.228 19.338 40.31 38.114 50.349zm10.394 78.823-9.88-68.821h-64.476l-41.392 71.701c-4.589 7.951-12.034 13.649-20.93 16.033-2.997.796-5.994 1.199-8.99 1.199-4.963 0-9.833-1.081-14.375-3.179l-12.08 84.217h149.133l11.238-83.327c1.03-7.751 5.478-14.152 11.752-17.823zm32.402 6.63v29.241c0 2.758 2.248 5.001 5.01 5.001s5.01-2.243 5.01-5.001v-29.241h78.242v29.241c0 2.758 2.248 5.001 5.01 5.001 2.763 0 5.01-2.243 5.01-5.001v-29.241h19.9c7.304 0 13.345 5.258 14.328 12.53l15.686 116.319c.562 4.322-.609 8.171-3.465 11.453-2.856 3.278-6.508 4.94-10.863 4.94h-169.454c-4.355 0-8.007-1.662-10.863-4.94-2.903-3.282-4.027-7.131-3.465-11.453l15.686-116.319c.983-7.272 6.977-12.53 14.328-12.53zm10.021-21.623c0-21.576 17.559-39.126 39.098-39.126 21.586 0 39.145 17.549 39.145 39.126v11.622h-78.242v-11.622zm-290.494-38.569c1.733 6.331 5.76 11.612 11.378 14.862l78.851 45.531c5.666 3.259 12.268 4.12 18.589 2.43 6.321-1.704 11.612-5.74 14.843-11.383l54.222-93.909c3.886-6.729 4.401-14.108 1.498-21.328l-21.539-53.74c-3.793-9.524-12.595-15.381-22.522-15.381-1.171 0-2.388.089-3.652.257l-57.312 8.222c-7.679 1.1-13.813 5.249-17.699 11.977l-54.222 93.914c-3.23 5.639-4.12 12.232-2.435 18.548zm322.052-193.989c17.793-6.078 36.944-4.851 53.8 3.451 33.385 16.388 48.041 55.827 34.228 89.76l-126.142-61.98c8.522-14.679 21.867-25.692 38.114-31.231zm79.741 110.531-126.517-62.149 4.074-8.26 126.517 62.15zm46.168 50.261-37.927-44.323 7.024-14.277c19.525-39.833 3.043-88.15-36.757-107.722-19.291-9.482-41.158-10.868-61.479-3.929-20.368 6.939-36.803 21.389-46.262 40.68l-7.023 14.276-13.251-.67.468-12.61c.047-1.236-.375-2.458-1.171-3.409-11.893-14-18.448-33.788-18.027-54.301 0-1.339-.515-2.641-1.452-3.601-.936-.955-2.201-1.498-3.559-1.498h-26.548c-2.528 0-4.682 1.892-4.963 4.411-1.686 14.038-13.579 24.62-27.766 24.62-14.141 0-26.081-10.582-27.766-24.62-.281-2.519-2.435-4.411-4.963-4.411h-26.549c-1.311 0-2.622.543-3.559 1.498-.937.96-1.452 2.262-1.452 3.601.421 20.513-6.134 40.301-17.98 54.301-.796.95-1.264 2.172-1.217 3.409l.983 25.453-13.813 1.981c-10.863 1.55-19.479 7.389-24.957 16.875l-54.222 93.914c-4.589 7.951-5.806 17.24-3.418 26.137 2.388 8.91 8.1 16.341 16.06 20.93l72.296 41.752-13.485 93.732c-.187 1.438.234 2.889 1.171 3.989.983 1.091 2.341 1.718 3.793 1.718h153.581l-3.137 23c-.936 7.201 1.077 13.893 5.853 19.362s11.144 8.358 18.402 8.358h169.454c7.258 0 13.626-2.889 18.402-8.358s6.789-12.169 5.806-19.362l-15.639-116.328c-1.686-12.282-11.846-21.192-24.254-21.192h-19.9v-11.622c0-27.088-22.054-49.127-49.165-49.127-27.064 0-49.118 22.04-49.118 49.127v11.622h-19.9c-.983 0-1.92.07-2.856.169l-10.208-70.886 2.575-69.851c18.027 7.501 39.519 11.748 62.322 16.262.515.098 1.03.197 1.545.3 31.184 37.487 63.258 56.319 95.754 56.319 12.08 0 24.255-2.613 36.429-7.838 0-.014 0-.014 0-.014v-.009c.609-.257 1.217-.651 1.686-1.161 1.731-1.859 1.825-4.739.139-6.677z"/></g></svg>