<svg id="svg11425" height="512" viewBox="0 0 16.933333 16.933334" width="512" xmlns="http://www.w3.org/2000/svg" xmlns:svg="http://www.w3.org/2000/svg"><g id="layer1" transform="translate(0 -280.067)"><path id="path5182" d="m15.61041 288.5333v-5.55624c-3.96875-.52918-7.1437504-2.11668-7.1437504-2.11668s-3.1749998 1.5875-7.1437499 2.11668v5.55624c0 6.61458 7.1437499 7.67292 7.1437499 7.67292s7.1437504-1.05834 7.1437504-7.67292z" fill="#ff6b6b"/><path id="circle5186" d="m12.96457 288.5333a4.4979125 4.4979125 0 0 1 -4.4979104 4.49791 4.4979125 4.4979125 0 0 1 -4.4979099-4.49791 4.4979125 4.4979125 0 0 1 4.4979099-4.49792 4.4979125 4.4979125 0 0 1 4.4979104 4.49792z" fill="#dbe9ee"/><path id="path5184" d="m7.6729096 286.15205.00002 1.5875h-1.5875198v1.5875h1.5875198l-.00002 1.5875h1.5875l.00002-1.5875h1.5874804v-1.5875h-1.5874804l-.00002-1.5875z" fill="#ff6b6b"/><path id="path4550-7" d="m8.3472896 280.62422s-3.1421899 1.56735-7.0605499 2.0898c-.13164.0182-.22938.13117-.22841.26407v.79272c-.008.36046.53695.36046.52917 0v-.56535c3.68012-.5239 6.7090399-1.96644 6.8791699-2.05052.17012.0841 3.1280704 1.52219 6.8786504 2.05052v5.32681c0 3.21203-1.71006 5.03172-3.445269 6.09213-1.703931 1.04129-3.3724514 1.30115-3.4333814 1.31051-.0609-.009-1.72946-.26922-3.43339-1.31051-1.7352098-1.06041-3.4457799-2.8801-3.4457799-6.09213v-3.70314c.008-.36048-.53695-.36048-.52917 0v3.70314c0 3.40253 1.8628401 5.42085 3.69952 6.54326 1.8366699 1.12241 3.6695399 1.39268 3.6695399 1.39268.026.004.0525.004.0786 0 0 0 1.8328704-.27027 3.6695414-1.39268 1.836679-1.12241 3.699519-3.14073 3.699519-6.54326v-5.55418c.001-.1329-.0968-.24589-.22841-.26407-3.91836-.52245-7.0605504-2.0898-7.0605504-2.0898-.0751-.0495-.19496-.0248-.23875 0zm.11938 3.14659c-2.6271199 0-4.7614698 2.13433-4.7614698 4.76146 0 2.62711 2.1343499 4.76405 4.7614698 4.76405 1.37293 0 2.6134704-.58249 3.4824714-1.51361.241159-.25769-.14538-.61943-.386541-.36173-.773.82826-1.8724504 1.34565-3.0959304 1.34565-2.34114 0-4.2322999-1.89322-4.2322999-4.23436s1.8911599-4.23231 4.2322999-4.23231c2.3411314 0 4.2322914 1.89117 4.2322914 4.23231 0 .72126-.178841 1.39895-.496091 1.99264-.166399.31143.300761.56103.46716.24959.357031-.6681.5581-1.43288.5581-2.24223 0-2.62713-2.134349-4.76146-4.7614604-4.76146zm-1.05885 2.38072v1.32447h-1.3218899c-.1461199-.00052-.26503.11743-.2656099.26355v1.58801c.0005291.14612.11949.26411.2656099.26355h1.3218899v1.32447c.000529.14633.11981.26439.26613.26356h1.58543c.14612.00052.26503-.11743.26562-.26356v-1.32447h1.3224014c.146119.00053.265029-.11743.265609-.26355v-1.58801c-.000529-.14612-.11949-.26411-.265609-.26355h-1.3224014v-1.32447c-.000529-.14611-.1195-.26411-.26562-.26354h-1.59913c-.14924.0133-.25254.12734-.25243.26354zm.52968.26562h1.05833v1.3224c.000529.14531.11824.26296.26355.26355h1.3244704v1.05885h-1.3244704c-.14612.00053-.2641.11949-.26355.26561v1.3224h-1.05833v-1.3224c.000529-.14612-.11743-.26502-.26355-.26561h-1.3244698v-1.05885h1.3244698c.14531-.00052.26297-.11824.26355-.26355z" font-variant-ligatures="normal" font-variant-position="normal" font-variant-caps="normal" font-variant-numeric="normal" font-variant-alternates="normal" font-feature-settings="normal" text-indent="0" text-align="start" text-decoration-line="none" text-decoration-style="solid" text-decoration-color="#000000" text-transform="none" text-orientation="mixed" white-space="normal" shape-padding="0" isolation="auto" mix-blend-mode="normal" solid-color="#000000" solid-opacity="1" vector-effect="none"/></g></svg>