<svg id="Capa_1" enable-background="new 0 0 512 512" height="512" viewBox="0 0 512 512" width="512" xmlns="http://www.w3.org/2000/svg"><g><g><path clip-rule="evenodd" d="m322.075 130.919-86.537 40.352c-1.989.927-4.268-.524-4.268-2.719v-34.914c0-2.194-2.279-3.646-4.268-2.719l-90.805 42.342-27.664 65.53 27.664 63.934h36.269l18.162-15.237 18.163 15.237h51.853l18.163-21.237 18.163 21.237h51.824l18.176-16.987 18.177 16.987h36.268v-169.087c0-2.194-2.279-3.646-4.268-2.719l-86.537 40.352c-1.989.927-4.268-.524-4.268-2.719v-34.914c.001-2.194-2.278-3.646-4.267-2.719z" fill="#3bc3a4" fillRule="evenodd"/></g><g><path clip-rule="evenodd" d="m208.791 302.725v-52.31c0-2.507-2.051-4.559-4.558-4.559h-27.208c-2.507 0-4.558 2.051-4.558 4.559v52.31z" fill="#375e7d" fillRule="evenodd"/></g><g><path clip-rule="evenodd" d="m296.969 302.725v-52.31c0-2.507-2.051-4.559-4.558-4.559h-27.208c-2.507 0-4.558 2.051-4.558 4.559v52.31z" fill="#375e7d" fillRule="evenodd"/></g><g><path clip-rule="evenodd" d="m380.588 245.857h-27.208c-2.507 0-4.587 2.051-4.587 4.559v52.31h36.354v-52.31c0-2.508-2.052-4.559-4.559-4.559z" fill="#375e7d" fillRule="evenodd"/></g><g><path clip-rule="evenodd" d="m136.198 302.725v-129.464-69.119h-69.004v198.583z" fill="#eff6ff" fillRule="evenodd"/></g><g><path clip-rule="evenodd" d="m421.415 302.725v-169.084c0-2.195-2.28-3.647-4.269-2.718l-13.85 6.468v165.334z" fill="#00a887" fillRule="evenodd"/></g><g><path clip-rule="evenodd" d="m208.791 264.291v-13.875c0-2.507-2.051-4.559-4.558-4.559h-27.208c-2.507 0-4.558 2.051-4.558 4.559v13.875c0-2.507 2.051-4.559 4.558-4.559h27.208c2.507 0 4.558 2.051 4.558 4.559z" fill="#2b4d66" fillRule="evenodd"/></g><g><path clip-rule="evenodd" d="m296.969 264.291v-13.875c0-2.507-2.051-4.559-4.558-4.559h-27.208c-2.507 0-4.558 2.051-4.558 4.559v13.875c0-2.507 2.051-4.559 4.558-4.559h27.208c2.507 0 4.558 2.051 4.558 4.559z" fill="#2b4d66" fillRule="evenodd"/></g><g><path clip-rule="evenodd" d="m385.147 250.415c0-2.507-2.051-4.559-4.558-4.559h-27.209c-2.507 0-4.587 2.051-4.587 4.559v13.875c0-2.507 2.08-4.559 4.587-4.559h27.208c2.507 0 4.558 2.051 4.558 4.559v-13.875z" fill="#2b4d66" fillRule="evenodd"/></g><g><path clip-rule="evenodd" d="m136.198 104.142h-69.004v34.987h39.089c9.943 0 8.291 4.16 8.291 14.16v44.361 105.075h21.624v-129.464z" fill="#d9eeff" fillRule="evenodd"/></g><g><path clip-rule="evenodd" d="m140.357 74.425h-77.351c-3.419 0-6.239 2.821-6.239 6.24v27.807c0 3.447 2.821 6.24 6.239 6.24h4.188 69.004 4.16c3.447 0 6.239-2.821 6.239-6.24v-27.807c0-3.419-2.792-6.24-6.24-6.24z" fill="#375e7d" fillRule="evenodd"/></g><g><path clip-rule="evenodd" d="m146.597 108.472v-27.807c0-3.419-2.792-6.24-6.239-6.24h-21.396c3.447 0 6.239 2.821 6.239 6.24v27.807c0 3.419-2.764 6.211-6.182 6.24h17.18 4.16c3.446 0 6.238-2.821 6.238-6.24z" fill="#2b4d66" fillRule="evenodd"/></g><g><path d="m453.182 310.226h-408.666c-4.142 0-7.5-3.357-7.5-7.5s3.358-7.5 7.5-7.5h408.666c4.142 0 7.5 3.357 7.5 7.5s-3.358 7.5-7.5 7.5z" fill="#b6c4cf"/></g><g fill="#2b4d66"><path d="m371.329 336.68h-33.22c-4.142 0-7.5 3.357-7.5 7.5s3.358 7.5 7.5 7.5h9.11v52.674c0 4.143 3.358 7.5 7.5 7.5s7.5-3.357 7.5-7.5v-52.674h9.11c4.142 0 7.5-3.357 7.5-7.5s-3.358-7.5-7.5-7.5z"/><path d="m103.006 336.595c-4.142 0-7.5 3.357-7.5 7.5v37.124l-28.494-41.271c-1.865-2.701-5.271-3.875-8.403-2.899-3.134.977-5.269 3.878-5.269 7.16v60.06c0 4.143 3.358 7.5 7.5 7.5s7.5-3.357 7.5-7.5v-35.996l26.984 39.085c2.232 3.143 5.91 4.459 9.371 3.357 3.53-1.126 5.812-4.45 5.812-8.469v-58.15c-.001-4.144-3.359-7.501-7.501-7.501z"/><path d="m492.373 338.036c-3.471-2.26-8.118-1.277-10.377 2.195l-12.782 19.642-12.913-19.792c-2.264-3.469-6.911-4.445-10.379-2.183-3.469 2.264-4.446 6.91-2.183 10.379l17.979 27.558-.052 28.504c-.008 4.142 3.344 7.506 7.486 7.514h.014c4.135 0 7.492-3.349 7.5-7.486l.053-28.524 17.85-27.43c2.258-3.472 1.275-8.118-2.196-10.377z"/><path d="m152.067 337.478h-16.553c-1.992 0-3.903.793-5.31 2.203-1.407 1.411-2.195 3.323-2.19 5.316 0 0 .057 22.464.057 29.127 0 8.098.057 29.281.057 29.281.005 1.991.803 3.899 2.216 5.303 1.405 1.395 3.305 2.177 5.284 2.177h.036c.5-.002 12.297-.059 17.009-.144 17.647-.285 30.456-15.661 30.456-36.561-.001-21.952-12.483-36.702-31.062-36.702zm.35 58.265c-2.145.039-5.893.072-9.308.097-.017-6.896-.038-16.76-.038-21.716 0-4.16-.022-14.472-.039-21.646h9.035c15.287 0 16.062 18.079 16.062 21.703-.001 10.606-4.855 21.387-15.712 21.562z"/><path d="m304.69 367.714c-7.387-2.722-14.26-5.69-16.368-6.615-1.65-1.327-1.595-3.173-1.484-3.942.153-1.069.929-3.684 4.792-4.852 8.499-2.55 16.369 3.652 16.597 3.835 3.172 2.626 7.875 2.205 10.528-.957 2.662-3.173 2.248-7.903-.925-10.565-.568-.477-14.087-11.604-30.525-6.676-8.295 2.509-14.164 9.056-15.315 17.085-1.08 7.528 2.182 14.773 8.513 18.909.332.217.68.406 1.042.568.348.155 8.628 3.847 17.957 7.283 2.645.976 8.71 3.729 7.909 8.216-.601 3.367-4.703 6.851-10.527 6.851-6 0-11.757-2.409-15.403-6.445-2.776-3.075-7.519-3.315-10.593-.538-3.074 2.776-3.315 7.52-.538 10.593 6.443 7.133 16.362 11.391 26.534 11.391 12.668 0 23.305-8.081 25.293-19.214 1.496-8.381-2.311-19.329-17.487-24.927z"/><path d="m255.323 385.549v-41.369c0-4.143-3.358-7.5-7.5-7.5s-7.5 3.357-7.5 7.5v41.369c0 2.889-.819 6.616-7.221 9.831-1.936.978-4.143 1.474-6.562 1.474-2.647 0-4.953-.65-7.021-1.968-4.973-3.204-5.992-6.038-5.992-9.309v-41.397c0-4.143-3.358-7.5-7.5-7.5s-7.5 3.357-7.5 7.5v41.397c0 9.171 4.209 16.34 12.899 21.938 4.516 2.879 9.601 4.339 15.114 4.339 4.79 0 9.272-1.038 13.309-3.077 12.789-6.423 15.474-16.176 15.474-23.228z"/><path d="m435.81 360.705c0-12.761-10.777-23.142-24.024-23.142h-15.983c-.005 0-.01.001-.015.001s-.009-.001-.014-.001c-4.142 0-7.5 3.357-7.5 7.5v60.173c0 4.143 3.358 7.5 7.5 7.5s7.5-3.357 7.5-7.5v-17.099l19.406 22.053c1.482 1.686 3.553 2.546 5.633 2.546 1.76 0 3.527-.616 4.952-1.869 3.109-2.736 3.412-7.476.676-10.585l-15.309-17.398c9.92-2.846 17.178-11.709 17.178-22.179zm-24.025 8.142c-1.97 0-5.309.011-8.42.023-.019-3.034-.041-13.119-.047-16.307h8.467c4.892 0 9.024 3.729 9.024 8.142s-4.132 8.142-9.024 8.142z"/><path d="m23.717 336.737c-4.142 0-7.5 3.357-7.5 7.5v60.173c0 4.143 3.358 7.5 7.5 7.5s7.5-3.357 7.5-7.5v-60.173c0-4.142-3.358-7.5-7.5-7.5z"/><path d="m223.784 478.082v-31.875c0-.203-.008-.406-.025-.608-.41-5.042-3.464-9.16-7.779-10.49-4.296-1.326-8.824.318-12.081 4.353-3.277 4.004-24.564 35.638-28.798 41.938-1.545 2.301-1.697 5.265-.394 7.71 1.303 2.446 3.848 3.974 6.619 3.974h27.458v11.416c0 4.143 3.358 7.5 7.5 7.5s7.5-3.357 7.5-7.5v-11.418c4.126-.02 7.464-3.37 7.464-7.5s-3.338-7.48-7.464-7.5zm-15 0h-13.355c4.644-6.864 9.532-14.052 13.355-19.604z"/><path d="m294.405 435.174c-13.608 0-24.68 11.071-24.68 24.681v27.493c0 13.594 11.071 24.652 24.68 24.652 13.593 0 24.651-11.059 24.651-24.652v-27.493c0-13.61-11.058-24.681-24.651-24.681zm9.651 52.174c0 5.322-4.33 9.652-9.651 9.652-5.337 0-9.68-4.33-9.68-9.652v-27.493c0-5.338 4.342-9.681 9.68-9.681 5.322 0 9.651 4.343 9.651 9.681z"/><path d="m251.071 496.957c-4.142 0-7.5 3.4-7.5 7.543s3.358 7.5 7.5 7.5 7.5-3.357 7.5-7.5v-.086c0-4.143-3.358-7.457-7.5-7.457z"/></g><g><path d="m345.916 49.274c-1.92 0-3.839-.732-5.303-2.196-20.686-20.686-48.201-32.078-77.476-32.078-29.276 0-56.791 11.392-77.476 32.078-2.929 2.928-7.678 2.928-10.606 0-2.929-2.93-2.929-7.678 0-10.607 23.518-23.519 54.8-36.471 88.082-36.471s64.563 12.952 88.082 36.471c2.929 2.93 2.929 7.678 0 10.607-1.465 1.464-3.384 2.196-5.303 2.196z" fill="#b6c4cf"/></g><g><path d="m321.129 74.062c-1.919 0-3.839-.732-5.303-2.196-14.071-14.072-32.784-21.821-52.689-21.821-19.906 0-38.618 7.749-52.689 21.821-2.929 2.928-7.678 2.928-10.606 0-2.929-2.93-2.929-7.678 0-10.607 16.904-16.904 39.383-26.214 63.295-26.214s46.391 9.31 63.295 26.214c2.929 2.93 2.929 7.678 0 10.607-1.464 1.463-3.384 2.196-5.303 2.196z" fill="#b6c4cf"/></g><g><path d="m296.342 98.85c-1.919 0-3.839-.732-5.303-2.196-7.458-7.458-17.367-11.565-27.902-11.565s-20.445 4.107-27.902 11.564c-2.929 2.93-7.678 2.929-10.606.001-2.929-2.929-2.929-7.678 0-10.606 10.29-10.291 23.966-15.959 38.509-15.959s28.218 5.668 38.509 15.958c2.929 2.93 2.929 7.678 0 10.607-1.466 1.463-3.385 2.196-5.305 2.196z" fill="#b6c4cf"/></g></g></svg>