<svg id="Layer_2" enable-background="new 0 0 512 512" viewBox="0 0 512 512" xmlns="http://www.w3.org/2000/svg"><g><path d="m21.755 20.069h307.201v428.939h-307.201z" fill="#ffd571"/><path d="m66.623 62.952h307.201v428.939h-307.201z" fill="#fff0ce"/><circle cx="284.635" cy="403.098" fill="#fff" r="53.21"/><path d="m486.789 356.587c-6.761-10.831-19.569-15.038-28.608-9.396-6.133 3.828-8.955 11.208-8.024 18.94v.001l-41.404 20.813s-21.506-22.399-29.484-16.914l-42.967 26.82c-7.643 4.771-3.046 25.93 10.268 47.26s30.303 34.754 37.946 29.983l42.967-26.82c9.738-7.157-2.245-33.916-2.245-33.916l36.884-28.054v.001c6.537 4.233 14.406 4.939 20.54 1.111 9.041-5.643 10.888-18.997 4.127-29.829z" fill="#ffd571"/><g style="fill:none;stroke:#3d4c6d;stroke-linecap:round;stroke-linejoin:round;stroke-miterlimit:10;strokeWidth:12"><path d="m342.865 491.892h-276.242v-428.94h307.201v281.734"/><path d="m42.478 449.008h-20.723v-428.939h307.201v18.94"/><path d="m172.121 115.79h96.205"/><g><path d="m112.05 225.129h96.205"/><path d="m112.05 269.666h216.906"/><path d="m112.05 314.204h216.906"/><path d="m112.05 358.742h87.378"/><path d="m112.05 403.279h56.753"/></g><path d="m192.138 148.77h56.171"/><path d="m318.214 443.32c-9.08 7.824-20.901 12.555-33.827 12.555-28.633 0-51.844-23.211-51.844-51.844s23.211-51.844 51.844-51.844c10.737 0 20.712 3.264 28.987 8.854"/><g><ellipse cx="360.41" cy="435.473" rx="16.314" ry="45.528" transform="matrix(.848 -.53 .53 .848 -175.915 256.901)"/><path d="m336.303 396.852 42.967-26.82c7.643-4.771 24.632 8.653 37.946 29.983s17.911 42.489 10.268 47.26l-42.967 26.82"/><path d="m425.24 413.358 40.437-30.756c4.496-3.42 5.647-9.702 2.656-14.494-2.991-4.792-9.14-6.517-14.188-3.98l-45.392 22.818"/><path d="m450.157 366.132c-.932-7.733 1.89-15.112 8.024-18.94 9.039-5.642 21.848-1.436 28.608 9.396 6.761 10.831 4.914 24.186-4.125 29.828-6.133 3.828-14.002 3.122-20.54-1.111"/></g><path d="m266.884 400.495 18.532 14.556 59.945-56.146"/></g></g></svg>