<svg id="Layer_1" height="512" viewBox="0 0 512 512" width="512" xmlns="http://www.w3.org/2000/svg" data-name="Layer 1"><circle cx="256" cy="256" fill="#003ea8" r="130.805"/><g fill-rule="evenodd"><path d="m348.493 348.493c-19.699 19.699-44.12 31.794-69.618 36.3-25.498-4.506-49.919-16.6-69.618-36.3-51.083-51.083-51.083-133.904 0-184.986 19.699-19.699 44.119-31.794 69.618-36.3 25.499 4.506 49.919 16.601 69.618 36.3 51.083 51.083 51.083 133.904 0 184.986z" fill="#004cbd"/><path d="m263.51 343.32c-4.745 27.168 39.328 13.159 40.939 34.218 16.037-6.384 31.065-16.065 44.045-29.045 22.486-22.486 35.074-51.123 37.764-80.495-12.515-2.105-24.078-1.321-30.632 5.233-7.113 7.113-19.077 19.518-27.288 8.043-7.999-11.178-17.787 4.996-28.01-19.586-3.863-9.287-23.608-6.536-18.26-26.429 1.36-5.06 15.973-55.887-1.878-46.079-16.794 9.227 4.497 21.589-26.461 27.756-13.026 2.595-14.155 13.649-8.637 23.618 3.853 6.959 15.176 23.687 8.817 29.676-24.827 23.382 15.494 29.685 27.979 33.538 18.391 5.676 21.026 46.478-3.067 30.546-9.802-6.482-13.32-2.387-15.31 9.008z" fill="#4fe88e"/><path d="m170.496 227.061c1.801-41.503 10.739-6.001 27.508-22.77 27.776-27.776-17.242-17.766 7.232-43.565 7.841-8.265 3.256-17.715-2.078-24.421-14.387 6.347-27.863 15.415-39.65 27.202-24.122 24.122-36.854 55.322-38.194 86.916 19.942 5.905 43.744 9.789 45.183-23.361z" fill="#3bd97d"/><path d="m180.398 207.096c4.401 1.849 10.249 4.55 17.605-2.806 19.507-19.507 3.112-20.378.097-28.103-7.423 9.616-13.323 20.028-17.703 30.909z" fill="#4fe88e"/><path d="m11.179 303.685c-2.19-1.672-2.609-4.803-.937-6.992s4.803-2.609 6.992-.937l14.767 11.238c-7.679-37.668-6.997-75.913 2.586-111.974 9.9-37.248 29.275-72.156 58.717-101.69 36.708-36.823 82.678-58.634 130.408-65.355 48.746-6.864 99.336 2.023 143.772 26.743 2.405 1.337 3.271 4.372 1.934 6.777s-4.372 3.271-6.777 1.934c-42.5-23.644-90.906-32.141-137.561-25.572-45.638 6.427-89.598 27.286-124.706 62.503-28.156 28.244-46.68 61.609-56.139 97.198-9.157 34.455-9.839 71.008-2.559 107.042l7.647-15.475c1.219-2.47 4.21-3.484 6.68-2.266s3.484 4.21 2.265 6.68l-13.772 27.87c-1.331 2.883-5.006 3.826-7.559 1.877l-25.758-19.602z" fill="#0e82f5"/><path d="m479.999 205.007c7.679 37.668 6.997 75.913-2.586 111.974-9.9 37.248-29.275 72.156-58.717 101.69-36.708 36.823-82.678 58.634-130.408 65.355-48.746 6.864-99.336-2.023-143.772-26.744-2.405-1.337-3.271-4.372-1.934-6.777s4.372-3.271 6.777-1.934c42.5 23.644 90.906 32.142 137.561 25.572 45.638-6.427 89.598-27.286 124.706-62.503 28.156-28.244 46.68-61.609 56.139-97.198 9.157-34.455 9.839-71.008 2.559-107.042l-7.647 15.475c-1.219 2.47-4.21 3.484-6.68 2.265s-3.484-4.21-2.265-6.68l13.772-27.87c1.331-2.883 5.006-3.826 7.559-1.877l25.758 19.602c2.19 1.672 2.609 4.803.938 6.992-1.672 2.189-4.803 2.609-6.992.937l-14.767-11.238z" fill="#0e82f5"/><g><path d="m275.899 141.265c-1.877 9.021 2.847 19.511 18.484 24.147 24.897 7.381 33.565 10.524 57.942 20.36 15.567 6.282 31.528-.148 46.597-7.545 25.458-12.497 39.638-16.988 66.941-24.655l-36.577-74.51c-33.323 20.288-49.634 18.531-75.844 10.964-24.635-7.11-27.109-9.734-54.028-5.839l-120.079 21.397c-30.376 5.413-18.995 36.697 5.493 32.817 29.566-4.679 77.28-6.48 94.487-4.743-1.607 2.032-2.779 4.542-3.416 7.606z" fill="#fdd7ad"/><path d="m275.899 141.265c-1.491 7.169 1.186 15.265 10.195 20.613-1.946-4.101-2.257-8.857-1.452-12.728.721-3.486 2.357-5.862 5.142-7.462 13.088-7.53 45.045 3.131 60.394 8.257 2.603.87 4.847 1.614 6.731 2.203 3.356 1.035 6.916-.844 7.961-4.204 1.035-3.356-.844-6.928-4.204-7.961-1.741-.541-3.933-1.27-6.46-2.114-25.504-8.514-54.119-16.799-70.773-7.217-1.504.869-2.879 1.863-4.117 3.007-1.607 2.032-2.779 4.542-3.416 7.606zm162.686-44.301-9.535 5.462c-30.33 16.125-51.68 9.717-74.86 3.013-20.24-5.81-28.515-11.653-51.257-8.377l-124.098 21.373c-8.888 1.584-13.854 5.901-12.949 11.272.295 1.752 1.486 3.937 3.381 5.901-12.01-7.457-12.65-25.975 10.068-30.023l120.079-21.397c26.919-3.895 29.393-1.272 54.028 5.839 26.21 7.567 42.521 9.323 75.844-10.964z" fill="#e6b17c"/><path d="m499.991 136.011-36.115-73.569c-2.482-5.056-8.651-7.163-13.708-4.681l-19.607 9.625c-5.057 2.482-7.163 8.651-4.681 13.707l36.115 73.569c2.482 5.057 8.651 7.163 13.707 4.681l19.607-9.625c5.056-2.482 7.163-8.651 4.681-13.708z" fill="#2a92fa"/><path d="m471.489 77.95-7.612-15.508c-2.482-5.056-8.651-7.163-13.708-4.681l-19.607 9.625c-5.057 2.482-7.163 8.651-4.681 13.707l8.868 18.066s36.738-21.21 36.738-21.21z" fill="#0e82f5"/></g><g><path d="m236.101 370.735c1.877-9.021-2.847-19.511-18.484-24.147-24.897-7.381-33.565-10.524-57.942-20.36-15.567-6.282-31.528.148-46.597 7.545-25.458 12.497-39.638 16.988-66.941 24.655l36.577 74.51c33.323-20.288 49.634-18.531 75.844-10.964 24.635 7.111 27.11 9.734 54.028 5.839l120.079-21.397c30.376-5.413 18.995-36.696-5.493-32.817-29.566 4.679-77.28 6.48-94.487 4.743 1.607-2.032 2.778-4.542 3.416-7.606z" fill="#fdd7ad"/><path d="m236.101 370.735c1.491-7.169-1.186-15.264-10.195-20.613 1.946 4.101 2.257 8.857 1.453 12.728-.721 3.486-2.357 5.862-5.142 7.463-13.088 7.53-45.045-3.131-60.394-8.257-2.602-.87-4.847-1.613-6.731-2.203-3.356-1.035-6.916.844-7.961 4.204-1.035 3.356.844 6.928 4.204 7.961 1.741.541 3.933 1.27 6.46 2.114 25.503 8.514 54.118 16.799 70.773 7.217 1.504-.869 2.879-1.863 4.117-3.007 1.607-2.032 2.778-4.542 3.416-7.606zm-162.686 44.301 9.535-5.462c30.33-16.125 51.68-9.717 74.86-3.013 20.24 5.81 28.515 11.654 51.257 8.377l124.098-21.373c8.888-1.584 13.854-5.901 12.949-11.272-.295-1.752-1.486-3.937-3.381-5.901 12.01 7.457 12.65 25.975-10.068 30.023l-120.079 21.397c-26.919 3.895-29.393 1.272-54.028-5.839-26.21-7.567-42.521-9.323-75.844 10.964l-9.299-17.901z" fill="#e6b17c"/><path d="m12.009 375.988 36.115 73.569c2.482 5.056 8.651 7.163 13.707 4.68l19.607-9.625c5.057-2.482 7.163-8.651 4.681-13.707l-36.115-73.569c-2.482-5.056-8.651-7.163-13.707-4.681l-19.607 9.625c-5.056 2.482-7.163 8.651-4.681 13.708z" fill="#2a92fa"/><path d="m40.511 434.05 7.612 15.507c2.482 5.056 8.651 7.163 13.707 4.68l19.607-9.625c5.057-2.482 7.163-8.651 4.681-13.707l-8.868-18.066s-36.738 21.21-36.738 21.21z" fill="#0e82f5"/></g></g></svg>