<svg id="Layer_1" height="512" viewBox="0 0 48 48" width="512" xmlns="http://www.w3.org/2000/svg"><g fill="#aecee8"><path d="m24 4c-.552 0-1-.448-1-1v-2c0-.552.448-1 1-1s1 .448 1 1v2c0 .552-.448 1-1 1z"/><path d="m24 48c-.552 0-1-.448-1-1v-2c0-.552.448-1 1-1s1 .448 1 1v2c0 .552-.448 1-1 1z"/><path d="m47 25h-2c-.552 0-1-.448-1-1s.448-1 1-1h2c.552 0 1 .448 1 1s-.448 1-1 1z"/><path d="m3 25h-2c-.552 0-1-.448-1-1s.448-1 1-1h2c.552 0 1 .448 1 1s-.448 1-1 1z"/><path d="m9.151 10.151c-.256 0-.512-.098-.707-.293l-1.415-1.415c-.391-.391-.391-1.023 0-1.414s1.023-.391 1.414 0l1.415 1.415c.391.391.391 1.023 0 1.414-.195.195-.451.293-.707.293z"/><path d="m40.264 41.264c-.256 0-.512-.098-.707-.293l-1.415-1.415c-.391-.391-.391-1.023 0-1.414s1.023-.391 1.414 0l1.415 1.415c.391.391.391 1.023 0 1.414-.195.195-.451.293-.707.293z"/><path d="m38.849 10.151c-.256 0-.512-.098-.707-.293-.391-.391-.391-1.023 0-1.414l1.415-1.415c.391-.391 1.023-.391 1.414 0s.391 1.023 0 1.414l-1.415 1.415c-.195.195-.451.293-.707.293z"/><path d="m7.736 41.264c-.256 0-.512-.098-.707-.293-.391-.391-.391-1.023 0-1.414l1.415-1.415c.391-.391 1.023-.391 1.414 0s.391 1.023 0 1.414l-1.415 1.415c-.195.195-.451.293-.707.293z"/></g><circle cx="24" cy="24" fill="#47caf0" r="18"/><path d="m24 39c-9.435 0-17.16-7.263-17.924-16.5-.041.496-.076.994-.076 1.5 0 9.941 8.059 18 18 18s18-8.059 18-18c0-.506-.035-1.004-.076-1.5-.764 9.237-8.49 16.5-17.924 16.5z" fill="#20aee1"/><path d="m32.885 35h-17.77c-.526 0-.952-.426-.952-.952v-.01l-.221-5.214c-.085-1.355.265-2.65 1.014-3.749.455-.667.696-1.452.696-2.27 0-.233-.023-.482-.067-.74l-.414-2.281c-.098-.513-.127-.952-.093-1.372.316-4.711 4.236-8.411 8.921-8.411s8.605 3.701 8.922 8.425c.033.406.004.845-.095 1.365l-.414 2.282c-.043.25-.066.499-.066.732 0 .819.24 1.604.695 2.269.75 1.1 1.1 2.395 1.015 3.747l-.223 5.28c-.033.5-.448.899-.95.899z" fill="#0d3b8d"/><path d="m33.042 25.074c-.339-.496-.558-1.059-.648-1.652-1.781 2.752-4.872 4.577-8.394 4.577s-6.613-1.825-8.395-4.577c-.09.593-.309 1.156-.648 1.653-.749 1.099-1.1 2.394-1.014 3.749l.221 5.214v.01c0 .526.426.952.952.952h17.77c.501 0 .917-.399.95-.899l.223-5.28c.086-1.352-.265-2.647-1.015-3.747z" fill="#00286f"/><path d="m24 42c4.258 0 8.165-1.487 11.247-3.959l-.237-2.821c-.15-1.76-1.38-3.25-3.08-3.74l-4.93-1.414v-2.796h-6v2.796l-4.93 1.414c-1.7.49-2.93 1.98-3.08 3.74l-.237 2.821c3.082 2.472 6.989 3.959 11.247 3.959z" fill="#ffcdb4"/><path d="m35.01 35.219c-3.045 2.362-6.858 3.781-11.01 3.781s-7.964-1.42-11.01-3.781l-.237 2.823c3.082 2.472 6.989 3.959 11.247 3.959s8.165-1.487 11.247-3.959l-.237-2.821z" fill="#f6a28d"/><path d="m23.343 31c1.061 0 2.078-.421 2.828-1.172l.828-.828v-1.729h-6v2.796l-.653.187c.672.477 1.475.747 2.31.747h.686z" fill="#f6a28d"/><path d="m24.008 16.501c-1.343 1.347-3.132 2.248-5.129 2.454-.502.052-.88.482-.88.987v2.572c0 1.591.632 3.118 1.757 4.243l1.071 1.071c.75.75 1.768 1.172 2.829 1.172h.686c1.061 0 2.078-.421 2.829-1.172l1.071-1.071c1.125-1.125 1.757-2.651 1.757-4.242v-2.599c0-.492-.361-.905-.847-.981-1.508-.234-2.812-1.082-3.652-2.28-.348-.496-1.065-.583-1.492-.155z" fill="#ffcdb4"/><path d="m22.321 27.624-1.258-1.258c-1.321-1.321-2.064-3.113-2.064-4.982v-2.448c-.041.005-.08.014-.12.018-.502.052-.88.482-.88.987v2.572c0 1.591.632 3.118 1.757 4.243l1.071 1.071c.75.75 1.768 1.172 2.828 1.172h.686c.22 0 .436-.029.65-.064-1.004-.141-1.946-.586-2.672-1.312z" fill="#f6a28d"/><path d="m30.816 36.083c-.219-.364-.499-.674-.816-.934v-4.149c0-.552-.448-1-1-1s-1 .448-1 1v3.333c-.337-.029-.68-.018-1.023.051-1.976.395-3.979.395-5.954 0-.343-.069-.686-.08-1.023-.051v-3.333c0-.552-.448-1-1-1s-1 .448-1 1v4.148c-.317.26-.597.57-.816.934-.733 1.222-1.15 2.596-1.25 3.993 2.429 1.221 5.162 1.925 8.066 1.925s5.637-.704 8.066-1.925c-.1-1.397-.517-2.771-1.25-3.993z" fill="#ff3b65"/><path d="m24 39c-2.656 0-5.169-.59-7.439-1.623-.343.866-.561 1.775-.627 2.698 2.429 1.221 5.162 1.925 8.066 1.925s5.637-.704 8.066-1.925c-.066-.923-.284-1.832-.627-2.698-2.27 1.033-4.783 1.623-7.439 1.623z" fill="#d82b50"/></svg>