<svg width="20" height="19" viewBox="0 0 20 19" fill="none" xmlns="http://www.w3.org/2000/svg">
<g clip-path="url(#clip0_5_26)">
<path d="M16.79 1.5H15.18V0.45C15.18 0.21 14.98 0 14.74 0C14.5 0 14.3 0.21 14.3 0.45V1.5H5.26V0.45C5.26 0.21 5.06 0 4.82 0C4.58 0 4.38 0.21 4.38 0.45V1.5H2.77C1.26 1.5 0 2.79 0 4.35V15.74C0 17.3 1.26 18.59 2.77 18.59H16.79C18.31 18.59 19.56 17.3 19.56 15.74V4.35C19.56 2.76 18.3 1.5 16.79 1.5ZM2.77 2.4H4.38V4.65C4.38 4.89 4.58 5.1 4.82 5.1C5.06 5.1 5.26 4.89 5.26 4.65V2.4H14.31V4.65C14.31 4.89 14.51 5.1 14.75 5.1C14.99 5.1 15.19 4.89 15.19 4.65V2.4H16.8C17.85 2.4 18.7 3.27 18.7 4.35V7.47H0.88V4.35C0.88 3.27 1.73 2.4 2.78 2.4H2.77ZM16.79 17.69H2.77C1.72 17.69 0.87 16.82 0.87 15.74V8.37H18.68V15.74C18.68 16.82 17.83 17.69 16.78 17.69H16.79Z" fill="white"/>
</g>
<defs>
<clipPath id="clip0_5_26">
<rect width="19.57" height="18.59" fill="white"/>
</clipPath>
</defs>
</svg>
