<svg width="17" height="27" viewBox="0 0 17 27" fill="none" xmlns="http://www.w3.org/2000/svg">
<g clip-path="url(#clip0_5_35)">
<path d="M8.48999 3.35003C9.92999 3.35003 11.24 3.95003 12.18 4.92003C13.13 5.89003 13.71 7.23003 13.71 8.71003C13.71 10.19 13.13 11.53 12.18 12.5L12.15 12.52C11.21 13.48 9.90999 14.07 8.47999 14.07C7.04999 14.07 5.72999 13.47 4.78999 12.5C3.84999 11.53 3.25999 10.19 3.25999 8.71003C3.25999 7.23003 3.84999 5.89003 4.78999 4.92003C5.72999 3.95003 7.03999 3.35003 8.47999 3.35003H8.48999ZM9.01999 22.89C9.01999 22.89 9.03999 22.86 9.04999 22.84L9.61999 21.89C9.73999 21.69 9.99999 21.62 10.19 21.75C10.39 21.87 10.45 22.14 10.33 22.34L10.07 22.78C10.59 22.9 11.05 23.07 11.4 23.29C11.96 23.63 12.3 24.09 12.3 24.61C12.3 25.23 11.83 25.76 11.06 26.11C10.39 26.42 9.47999 26.61 8.48999 26.61C7.49999 26.61 6.57999 26.42 5.91999 26.11C5.14999 25.76 4.67999 25.23 4.67999 24.61C4.67999 24.09 5.00999 23.63 5.57999 23.29C5.93999 23.07 6.38999 22.9 6.90999 22.78L1.23999 13.25C0.83999 12.58 0.52999 11.85 0.30999 11.07C0.0999902 10.32 -0.0100098 9.53003 -0.0100098 8.71003C-0.0100098 6.86003 0.55999 5.13003 1.51999 3.72003C2.50999 2.27003 3.92999 1.14003 5.57999 0.520025C5.79999 0.440025 6.03999 0.550025 6.10999 0.780025C6.17999 1.01003 6.07999 1.25003 5.85999 1.33003C4.36999 1.88003 3.08999 2.90003 2.19999 4.21003C1.32999 5.48003 0.81999 7.04003 0.81999 8.71003C0.81999 9.45003 0.91999 10.16 1.09999 10.84C1.28999 11.54 1.56999 12.2 1.92999 12.8L7.89999 22.83C7.89999 22.83 7.91999 22.86 7.92999 22.88L8.45999 23.77L8.98999 22.88L9.01999 22.89ZM7.37999 23.55C6.81999 23.65 6.34999 23.81 6.00999 24.02C5.69999 24.21 5.52999 24.41 5.52999 24.6C5.52999 24.85 5.81999 25.11 6.27999 25.32C6.83999 25.58 7.62999 25.74 8.50999 25.74C9.38999 25.74 10.18 25.58 10.74 25.32C11.2 25.11 11.49 24.85 11.49 24.6C11.49 24.41 11.31 24.2 11.01 24.02C10.67 23.81 10.19 23.65 9.63999 23.55L8.87999 24.82C8.75999 25.02 8.49999 25.09 8.30999 24.96C8.24999 24.92 8.19999 24.87 8.16999 24.81L7.40999 23.54L7.37999 23.55ZM6.91999 1.02003C6.68999 1.07003 6.46999 0.920025 6.42999 0.690025C6.37999 0.460025 6.52999 0.230025 6.75999 0.180025L6.83999 0.160025C7.06999 0.110025 7.28999 0.260025 7.32999 0.490025C7.37999 0.720025 7.22999 0.950025 6.99999 1.00003L6.91999 1.02003ZM8.05999 0.870025C7.82999 0.880025 7.62999 0.700025 7.61999 0.460025C7.60999 0.220025 7.78999 0.0200253 8.01999 0.0100253H8.48999C10.83 2.53105e-05 12.96 0.970025 14.49 2.55003L14.51 2.58003C16.03 4.16003 16.97 6.32003 16.97 8.72003C16.97 9.53003 16.86 10.33 16.65 11.08C16.44 11.86 16.12 12.59 15.72 13.26L11.55 20.27C11.43 20.47 11.17 20.54 10.98 20.41C10.78 20.29 10.72 20.02 10.84 19.82L15.01 12.81C15.37 12.2 15.65 11.54 15.84 10.85C16.02 10.18 16.12 9.46003 16.12 8.72003C16.12 6.56003 15.27 4.61003 13.9 3.19003L13.88 3.17003C12.5 1.75003 10.58 0.870025 8.46999 0.870025H8.25999L8.04999 0.880025L8.05999 0.870025ZM10.26 20.82C10.38 20.62 10.64 20.55 10.83 20.68C11.03 20.8 11.09 21.07 10.97 21.27L10.93 21.34C10.81 21.54 10.55 21.61 10.36 21.48C10.17 21.35 10.1 21.09 10.22 20.89L10.26 20.82ZM11.59 5.53003C10.8 4.72003 9.69999 4.21003 8.48999 4.21003C7.27999 4.21003 6.17999 4.71003 5.38999 5.53003C4.59999 6.35003 4.10999 7.47003 4.10999 8.71003C4.10999 9.95003 4.59999 11.08 5.38999 11.89C6.17999 12.7 7.27999 13.21 8.48999 13.21C9.69999 13.21 10.78 12.71 11.57 11.91L11.59 11.89C12.38 11.08 12.87 9.95003 12.87 8.71003C12.87 7.47003 12.38 6.34003 11.59 5.53003Z" fill="white"/>
</g>
<defs>
<clipPath id="clip0_5_35">
<rect width="16.98" height="26.6" fill="white"/>
</clipPath>
</defs>
</svg>
