<svg width="18" height="22" viewBox="0 0 18 22" fill="none" xmlns="http://www.w3.org/2000/svg">
<g clip-path="url(#clip0_5_38)">
<path d="M16.21 20.95C17.11 20.95 17.85 20.19 17.85 19.27V4.97C17.85 4.05 17.11 3.29 16.21 3.29H15.09L13.48 0.289995C13.48 0.289995 13.45 0.219995 13.42 0.219995C13.42 0.219995 13.36 0.189995 13.32 0.149995H13.29C13.29 0.149995 13.23 0.119995 13.19 0.119995H4.72C4.72 0.119995 4.66 0.119995 4.62 0.149995H4.59C4.59 0.149995 4.53 0.179995 4.49 0.219995C4.49 0.219995 4.46 0.249995 4.43 0.289995L2.89001 3.29H1.77C0.870005 3.29 0.130005 4.05 0.130005 4.97V19.27C0.130005 20.19 0.870005 20.95 1.77 20.95H16.22H16.21ZM8.25 8.56H9.76L10.4 16.5L8.99 17.72L7.61 16.47L8.25 8.56ZM9.72001 7.9H8.24L8.18001 6.88L9.01 6.35L9.84 6.88L9.71 7.9H9.72001ZM8.99 5.43L5.42 0.779995H12.55L8.99 5.43ZM10.3 6.39L9.47001 5.86L13.16 1.05L14.48 3.55L11.33 7.04L10.3 6.38V6.39ZM4.81 1.05L8.5 5.86L7.67 6.39L6.64 7.05L3.49001 3.56L4.81 1.06V1.05ZM0.770005 19.27V4.97C0.770005 4.41 1.22 3.95 1.77 3.95H2.96L6.36 7.71C6.42 7.78 6.52 7.81 6.58 7.81C6.64 7.81 6.71 7.81 6.74 7.78L7.54 7.29L7.6 8.25L6.93 16.62C6.93 16.72 6.96 16.82 7.03 16.88L8.76 18.4C8.82 18.47 8.89 18.47 8.98 18.47C9.07 18.47 9.14 18.44 9.2 18.4L10.93 16.88C10.99 16.81 11.06 16.72 11.03 16.62L10.36 8.25L10.42 7.29L11.22 7.78C11.28 7.81 11.32 7.81 11.38 7.81C11.48 7.81 11.54 7.78 11.6 7.71L15 3.95H16.19C16.74 3.95 17.19 4.41 17.19 4.97V19.27C17.19 19.83 16.74 20.29 16.19 20.29H1.76C1.21 20.29 0.760005 19.83 0.760005 19.27H0.770005Z" fill="white" stroke="white" stroke-width="0.25" stroke-miterlimit="10"/>
</g>
<defs>
<clipPath id="clip0_5_38">
<rect width="17.97" height="21.08" fill="white"/>
</clipPath>
</defs>
</svg>
