<svg width="20" height="21" viewBox="0 0 20 21" fill="none" xmlns="http://www.w3.org/2000/svg">
<g clip-path="url(#clip0_5_29)">
<path d="M9.99 2.06C9.71 2.06 9.48 2.3 9.48 2.59C9.48 2.88 9.71 3.12 9.99 3.12C10.27 3.12 10.5 2.88 10.5 2.59C10.5 2.3 10.27 2.06 9.99 2.06ZM17.46 9.73C17.18 9.73 16.95 9.97 16.95 10.26C16.95 10.55 17.18 10.78 17.46 10.78C17.74 10.78 17.97 10.55 17.97 10.26C17.97 9.97 17.74 9.73 17.46 9.73ZM2.52 9.73C2.24 9.73 2.01 9.97 2.01 10.26C2.01 10.55 2.24 10.78 2.52 10.78C2.8 10.78 3.03 10.55 3.03 10.26C3.03 9.97 2.8 9.73 2.52 9.73ZM9.99 4.12C9.71 4.12 9.48 4.35 9.48 4.64V10.03L6.05 13.35C5.84 13.55 5.84 13.88 6.03 14.09C6.13 14.2 6.27 14.26 6.4 14.26C6.53 14.26 6.65 14.21 6.75 14.12L10.32 10.67C10.43 10.57 10.5 10.43 10.5 10.27V4.66C10.5 4.37 10.27 4.14 9.99 4.14V4.12ZM9.99 17.4C9.71 17.4 9.48 17.64 9.48 17.93C9.48 18.22 9.71 18.46 9.99 18.46C10.27 18.46 10.5 18.22 10.5 17.93C10.5 17.64 10.27 17.4 9.99 17.4ZM9.99 1.05C14.94 1.05 18.96 5.17 18.96 10.26C18.96 15.35 14.94 19.47 9.99 19.47C5.04 19.47 1.02 15.34 1.02 10.26C1.02 5.18 5.04 1.05 9.99 1.05ZM9.99 0C4.47 0 0 4.59 0 10.26C0 15.93 4.47 20.52 9.99 20.52C15.51 20.52 19.98 15.93 19.98 10.26C19.98 4.59 15.51 0 9.99 0Z" fill="white"/>
</g>
<defs>
<clipPath id="clip0_5_29">
<rect width="19.98" height="20.51" fill="white"/>
</clipPath>
</defs>
</svg>
